<svg xmlns="http://www.w3.org/2000/svg" width="189" height="90" viewBox="0 0 189 90">
    <g fill="none" fill-rule="evenodd">
        <path fill="#FFF" fill-opacity=".01" d="M0 0h189v90H0z"/>
        <g fill-rule="nonzero" transform="translate(66.93 1.125)">
            <circle cx="27" cy="27" r="27" fill="#00AA13"/>
            <circle cx="37.125" cy="37.125" r="3.375" fill="#FFF"/>
            <circle cx="16.875" cy="37.125" r="3.375" fill="#FFF"/>
            <path fill="#FFF" d="M45.773 26.097l-3.218-5.276a7.734 7.734 0 0 0-6.472-3.602l-2.579-.067v-.876c0-1.053-.928-1.784-2.074-2.028-4.435-.909-14.727-1.02-20.343-.166a2.904 2.904 0 0 0-2.422 2.228 51.591 51.591 0 0 0-.025 17.845 2.817 2.817 0 0 0 2.194 2.16l.586.157a5.707 5.707 0 0 1 5.728-4.972 5.346 5.346 0 0 1 5.366 5.515c1.686.044 3.649.11 4.831.11 1.035 0 2.729-.049 4.143-.11a5.344 5.344 0 0 1 5.384-5.515 5.72 5.72 0 0 1 5.73 4.991l.7-.109a2.756 2.756 0 0 0 2.254-2.604c.217-2.228.602-5.132.567-6.451 0-.435-.121-.861-.35-1.23zm-4.26.91h-7.79v-6.785h2.56a4.955 4.955 0 0 1 4.249 2.18l1.977 3.166c.412.638-.146 1.438-.995 1.438z"/>
        </g>
        <g fill="#000" fill-rule="nonzero">
            <path d="M52.23 82.125a5.805 5.805 0 0 0 5.044 2.465c2.352 0 4.08-1.502 4.08-3.543v-1.076H61.3a6.408 6.408 0 0 1-4.847 1.813 7.852 7.852 0 1 1-.142-15.7 6.751 6.751 0 0 1 4.988 1.757h.057v-1.474h4.025v14.624c0 4.25-3.373 7.198-8.106 7.198a9.683 9.683 0 0 1-8.048-3.57l3.003-2.494zm8.955-9.098c0-1.7-1.927-3.26-4.081-3.26-2.721 0-4.534 1.645-4.534 4.11a3.97 3.97 0 0 0 4.364 4.224c2.353 0 4.251-1.475 4.251-3.317v-1.757zM75.927 65.942c4.903 0 8.475 3.486 8.475 7.936 0 4.449-3.572 7.935-8.475 7.935a7.953 7.953 0 1 1 0-15.87zm0 3.684a4.251 4.251 0 1 0 4.28 4.252 4.07 4.07 0 0 0-4.28-4.252zM90.556 79.915v1.473h-3.882v-20.69h4.194v6.86h.056a7.166 7.166 0 0 1 4.875-1.616 7.819 7.819 0 0 1 8.02 7.936 7.733 7.733 0 0 1-8.134 7.935 6.624 6.624 0 0 1-5.073-1.898h-.056zm4.59-10.29c-2.295 0-4.278 1.475-4.278 3.26v1.899c0 1.842 1.899 3.317 4.278 3.317 2.722 0 4.478-1.645 4.478-4.223a4.17 4.17 0 0 0-4.478-4.252zM113.942 65.942c4.902 0 8.473 3.486 8.473 7.936 0 4.449-3.571 7.935-8.473 7.935a7.953 7.953 0 1 1 0-15.87zm0 3.684a4.251 4.251 0 1 0 4.279 4.252 4.07 4.07 0 0 0-4.28-4.252z"/>
            <path d="M128.26 73.792l-6.377-7.425h5.27l3.798 4.846h.057l3.854-4.846h5.271l-6.376 7.425 6.547 7.596h-5.272l-4.024-5.045h-.057l-3.969 5.045h-5.27z"/>
        </g>
    </g>
</svg>
