<svg xmlns="http://www.w3.org/2000/svg" width="71" height="27" viewBox="0 0 71 27">
    <g fill="none" fill-rule="nonzero">
        <path fill="#EE2B38" d="M15.146 7.91a7.567 7.567 0 1 1-15.133.002 7.567 7.567 0 0 1 15.133-.003"/>
        <path fill="#FFF" d="M7.506 7.56a11.937 11.937 0 0 0-.156-2.499.53.53 0 1 0-1.033.175c.1.533.149 1.074.146 1.616a.356.356 0 1 1-.712 0V4.855a.545.545 0 0 0-.436-.546.53.53 0 0 0-.613.518v2.025a.361.361 0 0 1-.614.25.353.353 0 0 1-.103-.253 8.557 8.557 0 0 1 .146-1.616.53.53 0 0 0-.425-.6.516.516 0 0 0-.604.428c-.13.77-.185 1.55-.162 2.33.017.792.44 1.519 1.12 1.924.304.17.503.482.529.83l.057 1.191a.585.585 0 0 0 1.167 0l.056-1.151c.026-.349.23-.659.538-.822a2.19 2.19 0 0 0 1.105-1.807M10.523 4.305c-1.38 0-2.07 1.969-2.07 3.27.015.682.376 1.31.957 1.667.27.163.443.446.466.76l.065 1.338a.582.582 0 0 0 1.165 0l.065-1.338a.973.973 0 0 1 .467-.76c.58-.358.94-.985.957-1.667 0-1.301-.69-3.27-2.072-3.27"/>
        <path fill="#EE2B38" d="M15.146 7.91a7.567 7.567 0 1 1-15.133.002 7.567 7.567 0 0 1 15.133-.003"/>
        <path fill="#FFF" d="M7.506 7.56a11.937 11.937 0 0 0-.156-2.499.53.53 0 1 0-1.033.175c.1.533.149 1.074.146 1.616a.356.356 0 1 1-.712 0V4.855a.545.545 0 0 0-.436-.546.53.53 0 0 0-.613.518v2.025a.361.361 0 0 1-.614.25.353.353 0 0 1-.103-.253 8.557 8.557 0 0 1 .146-1.616.53.53 0 0 0-.425-.6.516.516 0 0 0-.604.428c-.13.77-.185 1.55-.162 2.33.017.792.44 1.519 1.12 1.924.304.17.503.482.529.83l.057 1.191a.585.585 0 0 0 1.167 0l.056-1.151c.026-.349.23-.659.538-.822a2.19 2.19 0 0 0 1.105-1.807M10.523 4.305c-1.38 0-2.07 1.969-2.07 3.27.015.682.376 1.31.957 1.667.27.163.443.446.466.76l.065 1.338a.582.582 0 0 0 1.165 0l.065-1.338a.973.973 0 0 1 .467-.76c.58-.358.94-.985.957-1.667 0-1.301-.69-3.27-2.072-3.27"/>
        <path fill="#010101" d="M33.705 6.485c0-1.138-.78-1.985-1.999-1.985-1.217 0-1.997.847-1.997 1.985 0 1.139.781 1.986 1.997 1.986 1.217 0 1.999-.846 1.999-1.986m-5.956 0c0-2.09 1.655-3.706 3.956-3.706 2.302 0 3.958 1.614 3.958 3.706 0 2.093-1.642 3.706-3.958 3.706-2.316 0-3.956-1.615-3.956-3.706M24.618 6.864c0 .867-.88 1.559-1.999 1.559-1.264 0-2.05-.747-2.05-1.985 0-1.147.84-1.931 2.13-1.931 1.027 0 1.919.718 1.919 1.53v.827zm.08-3.955v.692h-.027c-.507-.53-1.345-.826-2.344-.826-2.145 0-3.729 1.6-3.729 3.664 0 2.143 1.624 3.714 3.796 3.714.972 0 1.784-.306 2.277-.853h.026v.714c0 .96-.826 1.665-1.918 1.665s-1.741-.311-2.297-.842l-1.275 1.227c.854.907 2.142 1.423 3.613 1.423 2.237 0 3.768-1.502 3.768-3.5V2.912l-1.89-.003zM38.269 4.534h-1.706V2.843h1.706v-.725c0-1.25.872-2.015 2.336-2.015h1.866V1.81h-1.624c-.39 0-.592.188-.592.55v.484h2.66v1.691h-2.66v5.427H38.27l-.001-5.427zM43.37 6.4c0-2.117 1.679-3.758 4.015-3.758 2.336 0 4.016 1.637 4.016 3.759 0 2.121-1.665 3.76-4.019 3.76-2.353 0-4.011-1.639-4.011-3.76zm6.043 0c0-1.154-.794-2.014-2.028-2.014s-2.028.86-2.028 2.015c0 1.154.794 2.014 2.028 2.014s2.028-.859 2.028-2.014zM52.192 6.4c0-2.117 1.68-3.758 4.016-3.758 2.336 0 4.013 1.637 4.013 3.759 0 2.121-1.665 3.76-4.015 3.76-2.349 0-4.014-1.639-4.014-3.76zm6.043 0c0-1.154-.794-2.014-2.027-2.014-1.234 0-2.028.86-2.028 2.015 0 1.154.794 2.014 2.028 2.014 1.233 0 2.027-.859 2.027-2.014zM61.015 6.4c0-2.147 1.625-3.753 3.8-3.753.94 0 1.759.265 2.31.765h.026V.158h1.985V9.96h-1.84v-.695h-.026c-.538.59-1.37.9-2.404.9-2.254-.004-3.851-1.562-3.851-3.764zm6.136.43v-.9c0-.845-.927-1.544-2.028-1.544-1.261 0-2.118.82-2.118 2.015 0 1.195.833 2 2.118 2 1.129 0 2.028-.698 2.028-1.57z"/>
        <path fill="#231F20" d="M65.095 14.593l-.257 2.8a460.645 460.645 0 0 1-.256 2.799c-.06.632-.083.917-.07.853-.07.355-.243.53-.514.53a279.61 279.61 0 0 1-1.445-.03l-1.439-.02-.85-.019c-.324-.056-.488-.234-.495-.53-.009-.328-.018-.801-.029-1.42-.01-.648-.016-1.122-.022-1.422 0-.384.058-.649.189-.794.045-.052.354-.103.926-.154l.298-.007c.185 0 .34-.014.466-.029.418-.038.63-.123.634-.251a8.58 8.58 0 0 1 .03-.587c-.03-.177-.157-.264-.385-.256-.013 0-.178.022-.495.054-.235.032-.472.05-.71.053-.603 0-.89-.164-.857-.491.07-.706.096-1.022.082-.95.082-.367.285-.551.608-.551.319 0 .794-.01 1.427-.015.632-.005 1.107-.007 1.426-.007.047 0 .192-.012.438-.03.176-.017.353-.022.53-.018.423.016.67.152.738.406a.205.205 0 0 1 .023.085l.01.001zm-3.203 4.103c-.105.035-.185.28-.24.737-.012.068-.02.138-.022.207.01.055.06.078.148.066l.727-.094c.36-.042.556-.123.592-.24.018-.133.045-.337.079-.611l.021-.2c-.01-.05-.058-.067-.141-.051l-1.164.186zM44.824 21.212c0 .434 0 .662-.008.706-.055.278-.21.406-.467.386-1.051-.077-1.838-.136-2.361-.177a30.168 30.168 0 0 1-.675-.048c-.303-.024-.53-.04-.683-.048a10.318 10.318 0 0 1-.57-.047.45.45 0 0 1-.32-.338c-.01-.166 0-.332.03-.496.068-.514.174-.806.316-.88.071-.033.38-.051.926-.056l1.426-.01c.222 0 .356-.081.397-.239 0-.014.094-1.402.12-1.765.02-.167.025-.336.016-.504-.032-.14-.15-.233-.35-.278-.606-.13-1.097-.232-1.475-.31-.506-.109-.77-.17-.794-.18-.224-.11-.324-.368-.3-.772l.214-3.53c.026-.444.114-.705.264-.78.202-.058.411-.09.621-.093l2.923-.232c.648-.053.918-.08.807-.082.332.006.505.143.521.412a.143.143 0 0 1-.012.075c0 .014-.027.162-.067.446a4.897 4.897 0 0 1-.115.53c-.118.422-.31.634-.579.636h-2.282c-.133 0-.302 2.171-.265 2.303.022.11.106.196.215.22l.384.058 1.411.224c.312.047.522.126.63.238.117.118.176.327.176.626v1.398c0 .622-.074 2.299-.074 2.607z"/>
        <path fill="#231F20" d="M50.84 14.359c0 .018.015.143.052.37.027.155.043.31.048.466 0 .379-.132.572-.397.579-.028 0-.159-.008-.397-.017-.238-.01-.438 0-.594 0-.523.01-.787.082-.794.214a3662.17 3662.17 0 0 1-.343 6.485c-.01.253-.104.423-.28.509a2.314 2.314 0 0 1-.63.113c-.505.05-.743.073-.716.076-.299-.015-.443-.153-.432-.414l.207-4.346a671.677 671.677 0 0 0 .135-2.815c0-.035-.227 0-.692.118a2.965 2.965 0 0 1-.324.098c-.173.057-.35.101-.53.132-.462.079-.643-.02-.542-.295.196-.578.394-1.154.595-1.728v-.007l.016-.026a.586.586 0 0 1 .515-.288l4.455-.119c.265 0 .445.081.53.265.045.091.068.132.068.132s.019.155.05.498zM50.217 18.559v-.34c0-.183.01-.338.022-.461.038-.397.152-.612.344-.651.353-.07.716-.079 1.073-.026.49.072.73.265.72.57l-.07 2.07c-.045 1.428-.08 2.514-.107 3.26-.022.612-.028.89-.016.836a.662.662 0 0 1-.463.588.132.132 0 0 1-.085.009c-.74.051-1.092.08-1.059.08-.478-.023-.708-.194-.688-.51l.065-1.076.264-4.35zm.31 6.424c.625-.035.914-.055.868-.058.372.027.556.186.554.476 0 .023.01.16.023.41.012.16.009.323-.009.484-.036.375-.19.58-.46.615h-.018a.132.132 0 0 1-.035 0h-.9c-.386 0-.588-.132-.604-.41 0-.052.02-.353.062-.903.031-.388.204-.593.52-.614zM59.04 13.472a7311.78 7311.78 0 0 1-1.034 8.62 33.73 33.73 0 0 1-.119.961c-.088.22-.319.334-.692.34-.157 0-.313-.01-.469-.029a12.856 12.856 0 0 0-.397-.038l-2.064-.084a.367.367 0 0 1-.362-.318c-.03-.18-.046-.361-.05-.543l-.53-8.485a.105.105 0 0 1 .026-.082c.051-.176.205-.276.46-.297.109-.006.218-.006.326 0 .173.015.275.021.303.019.028-.003.11 0 .277-.012.122-.007.244-.007.366 0 .318.02.497.106.539.265.03.257.04.517.03.776 0 .353-.003.923-.008 1.71l-.02 3.677v.416c0 .106.09.178.276.217.187.038.296.016.316-.085.073-.363.12-.598.14-.704.226-1.134.265-2.85.713-5.11.151-.756.252-1.158.301-1.206.147-.157.714-.25 1.095-.315.42-.075.611.03.577.307zM70.162 21.994c-.08.593-.113.86-.1.802-.088.322-.268.459-.54.412-.54-.088-1.335-.22-2.382-.397a5.835 5.835 0 0 0-.42-.038 5.292 5.292 0 0 1-.488-.057c-.4-.063-.664-.179-.794-.348-.044-.053-.032-.397.033-1.051.117-1.118.3-2.902.553-5.351.025-.248.065-.621.122-1.121.057-.5.089-.874.114-1.121.034-.336.057-.52.067-.556a.44.44 0 0 1 .379-.33.175.175 0 0 1 .069.01l1.809.231c.287.036.397.28.31.735l-.763 4.318-.35 1.986c0 .045-.02.11-.039.197-.018.086-.024.152-.032.197-.007.045.18.052.57.034l1.225-.064c.358-.019.57-.014.634.015.166.079.224.316.175.714a6.366 6.366 0 0 1-.08.455c-.037.18-.068.305-.072.328zM38.422 20.23c.148.143.22.397.217.76 0 .106-.013.255-.034.447-.021.192-.027.324-.03.397 0 .323-.252.466-.74.433a982.18 982.18 0 0 1-4.002-.29c-.384-.028-.586-.303-.606-.826a4.267 4.267 0 0 1 .033-.668c.039-.33.057-.519.055-.565l.141-3.374v-.397a3.869 3.869 0 0 1 .024-.504c.048-.412.204-.629.469-.649l2.382-.196c1.428-.116 2.19-.165 2.284-.145.239.046.354.347.348.9a6.9 6.9 0 0 1-.04.64c-.024.257-.038.413-.039.441 0-.042-.014.487-.041 1.588-.006.345-.088.557-.245.636-.077.037-.397.03-.96-.018l-1.625-.132a2.868 2.868 0 0 0-.517-.025c-.133.03-.197.159-.21.39 0 .027-.015.12-.04.281-.023.16-.034.302-.044.412-.021.358.021.56.132.61l1.78-.142c.798-.071 1.234-.073 1.308-.004zm-1.349-3.9l-1.159-.278c-.091-.019-.148-.017-.173 0-.026.017-.028.074-.024.17 0 .145.006.378.02.7 0 .2.088.297.264.293l.68-.021c.36-.01.54-.062.542-.154.003-.43-.047-.666-.15-.71zM32.711 14.691c.059.296.059.6 0 .896-.077.425-.238.62-.483.587a30.474 30.474 0 0 1-.597-.085c-.263-.04-.463-.062-.597-.085-.235-.033-.381-.024-.435.03-.055.052-.078.191-.084.443 0 .009 0 .06-.009.153a.71.71 0 0 0 0 .181c0 .155.056.237.154.248.068.013.168.03.297.046l.292.039c.398.057.623.162.675.313.06.385.1.773.117 1.162.027.347-.027.554-.162.621-.059.03-.329-.008-.813-.112l-1.191-.247c-.078-.02-.117.038-.115.167a.926.926 0 0 0 .01.17c.007.04.011.079.013.119.008.257.023.639.044 1.143l.11 2.71c.019.2.011.402-.023.6-.063.183-.222.272-.479.265h-1.343c-.405 0-.637-.036-.694-.091-.105-.105-.161-.397-.164-.884-.007-.67-.01-1.026-.012-1.072 0-.168.032-1.585.096-4.25.016-.564.036-1.412.062-2.544l.017-.622a.46.46 0 0 1 .361-.413c.01 0 .011 0 0 0a6.644 6.644 0 0 1 .469.01c.181.011.323.014.412.02 1.243.041 2.163.074 2.76.096.036 0 .157 0 .363-.007.135-.005.27-.001.405.01.317.034.498.162.544.383z"/>
        <path fill="#010101" d="M33.705 6.485c0-1.138-.78-1.985-1.999-1.985-1.217 0-1.997.847-1.997 1.985 0 1.139.781 1.986 1.997 1.986 1.217 0 1.999-.846 1.999-1.986m-5.956 0c0-2.09 1.655-3.706 3.956-3.706 2.302 0 3.958 1.614 3.958 3.706 0 2.093-1.642 3.706-3.958 3.706-2.316 0-3.956-1.615-3.956-3.706M24.618 6.864c0 .867-.88 1.559-1.999 1.559-1.264 0-2.05-.747-2.05-1.985 0-1.147.84-1.931 2.13-1.931 1.027 0 1.919.718 1.919 1.53v.827zm.08-3.955v.692h-.027c-.507-.53-1.345-.826-2.344-.826-2.145 0-3.729 1.6-3.729 3.664 0 2.143 1.624 3.714 3.796 3.714.972 0 1.784-.306 2.277-.853h.026v.714c0 .96-.826 1.665-1.918 1.665s-1.741-.311-2.297-.842l-1.275 1.227c.854.907 2.142 1.423 3.613 1.423 2.237 0 3.768-1.502 3.768-3.5V2.912l-1.89-.003zM38.269 4.534h-1.706V2.843h1.706v-.725c0-1.25.872-2.015 2.336-2.015h1.866V1.81h-1.624c-.39 0-.592.188-.592.55v.484h2.66v1.691h-2.66v5.427H38.27l-.001-5.427zM43.37 6.4c0-2.117 1.679-3.758 4.015-3.758 2.336 0 4.016 1.637 4.016 3.759 0 2.121-1.665 3.76-4.019 3.76-2.353 0-4.011-1.639-4.011-3.76zm6.043 0c0-1.154-.794-2.014-2.028-2.014s-2.028.86-2.028 2.015c0 1.154.794 2.014 2.028 2.014s2.028-.859 2.028-2.014zM52.192 6.4c0-2.117 1.68-3.758 4.016-3.758 2.336 0 4.013 1.637 4.013 3.759 0 2.121-1.665 3.76-4.015 3.76-2.349 0-4.014-1.639-4.014-3.76zm6.043 0c0-1.154-.794-2.014-2.027-2.014-1.234 0-2.028.86-2.028 2.015 0 1.154.794 2.014 2.028 2.014 1.233 0 2.027-.859 2.027-2.014zM61.015 6.4c0-2.147 1.625-3.753 3.8-3.753.94 0 1.759.265 2.31.765h.026V.158h1.985V9.96h-1.84v-.695h-.026c-.538.59-1.37.9-2.404.9-2.254-.004-3.851-1.562-3.851-3.764zm6.136.43v-.9c0-.845-.927-1.544-2.028-1.544-1.261 0-2.118.82-2.118 2.015 0 1.195.833 2 2.118 2 1.129 0 2.028-.698 2.028-1.57z"/>
        <path fill="#231F20" d="M65.095 14.593l-.257 2.8a460.645 460.645 0 0 1-.256 2.799c-.06.632-.083.917-.07.853-.07.355-.243.53-.514.53a279.61 279.61 0 0 1-1.445-.03l-1.439-.02-.85-.019c-.324-.056-.488-.234-.495-.53-.009-.328-.018-.801-.029-1.42-.01-.648-.016-1.122-.022-1.422 0-.384.058-.649.189-.794.045-.052.354-.103.926-.154l.298-.007c.185 0 .34-.014.466-.029.418-.038.63-.123.634-.251a8.58 8.58 0 0 1 .03-.587c-.03-.177-.157-.264-.385-.256-.013 0-.178.022-.495.054-.235.032-.472.05-.71.053-.603 0-.89-.164-.857-.491.07-.706.096-1.022.082-.95.082-.367.285-.551.608-.551.319 0 .794-.01 1.427-.015.632-.005 1.107-.007 1.426-.007.047 0 .192-.012.438-.03.176-.017.353-.022.53-.018.423.016.67.152.738.406a.205.205 0 0 1 .023.085l.01.001zm-3.203 4.103c-.105.035-.185.28-.24.737-.012.068-.02.138-.022.207.01.055.06.078.148.066l.727-.094c.36-.042.556-.123.592-.24.018-.133.045-.337.079-.611l.021-.2c-.01-.05-.058-.067-.141-.051l-1.164.186zM44.824 21.212c0 .434 0 .662-.008.706-.055.278-.21.406-.467.386-1.051-.077-1.838-.136-2.361-.177a30.168 30.168 0 0 1-.675-.048c-.303-.024-.53-.04-.683-.048a10.318 10.318 0 0 1-.57-.047.45.45 0 0 1-.32-.338c-.01-.166 0-.332.03-.496.068-.514.174-.806.316-.88.071-.033.38-.051.926-.056l1.426-.01c.222 0 .356-.081.397-.239 0-.014.094-1.402.12-1.765.02-.167.025-.336.016-.504-.032-.14-.15-.233-.35-.278-.606-.13-1.097-.232-1.475-.31-.506-.109-.77-.17-.794-.18-.224-.11-.324-.368-.3-.772l.214-3.53c.026-.444.114-.705.264-.78.202-.058.411-.09.621-.093l2.923-.232c.648-.053.918-.08.807-.082.332.006.505.143.521.412a.143.143 0 0 1-.012.075c0 .014-.027.162-.067.446a4.897 4.897 0 0 1-.115.53c-.118.422-.31.634-.579.636h-2.282c-.133 0-.302 2.171-.265 2.303.022.11.106.196.215.22l.384.058 1.411.224c.312.047.522.126.63.238.117.118.176.327.176.626v1.398c0 .622-.074 2.299-.074 2.607z"/>
        <path fill="#231F20" d="M50.84 14.359c0 .018.015.143.052.37.027.155.043.31.048.466 0 .379-.132.572-.397.579-.028 0-.159-.008-.397-.017-.238-.01-.438 0-.594 0-.523.01-.787.082-.794.214a3662.17 3662.17 0 0 1-.343 6.485c-.01.253-.104.423-.28.509a2.314 2.314 0 0 1-.63.113c-.505.05-.743.073-.716.076-.299-.015-.443-.153-.432-.414l.207-4.346a671.677 671.677 0 0 0 .135-2.815c0-.035-.227 0-.692.118a2.965 2.965 0 0 1-.324.098c-.173.057-.35.101-.53.132-.462.079-.643-.02-.542-.295.196-.578.394-1.154.595-1.728v-.007l.016-.026a.586.586 0 0 1 .515-.288l4.455-.119c.265 0 .445.081.53.265.045.091.068.132.068.132s.019.155.05.498zM50.217 18.559v-.34c0-.183.01-.338.022-.461.038-.397.152-.612.344-.651.353-.07.716-.079 1.073-.026.49.072.73.265.72.57l-.07 2.07c-.045 1.428-.08 2.514-.107 3.26-.022.612-.028.89-.016.836a.662.662 0 0 1-.463.588.132.132 0 0 1-.085.009c-.74.051-1.092.08-1.059.08-.478-.023-.708-.194-.688-.51l.065-1.076.264-4.35zm.31 6.424c.625-.035.914-.055.868-.058.372.027.556.186.554.476 0 .023.01.16.023.41.012.16.009.323-.009.484-.036.375-.19.58-.46.615h-.018a.132.132 0 0 1-.035 0h-.9c-.386 0-.588-.132-.604-.41 0-.052.02-.353.062-.903.031-.388.204-.593.52-.614zM59.04 13.472a7311.78 7311.78 0 0 1-1.034 8.62 33.73 33.73 0 0 1-.119.961c-.088.22-.319.334-.692.34-.157 0-.313-.01-.469-.029a12.856 12.856 0 0 0-.397-.038l-2.064-.084a.367.367 0 0 1-.362-.318c-.03-.18-.046-.361-.05-.543l-.53-8.485a.105.105 0 0 1 .026-.082c.051-.176.205-.276.46-.297.109-.006.218-.006.326 0 .173.015.275.021.303.019.028-.003.11 0 .277-.012.122-.007.244-.007.366 0 .318.02.497.106.539.265.03.257.04.517.03.776 0 .353-.003.923-.008 1.71l-.02 3.677v.416c0 .106.09.178.276.217.187.038.296.016.316-.085.073-.363.12-.598.14-.704.226-1.134.265-2.85.713-5.11.151-.756.252-1.158.301-1.206.147-.157.714-.25 1.095-.315.42-.075.611.03.577.307zM70.162 21.994c-.08.593-.113.86-.1.802-.088.322-.268.459-.54.412-.54-.088-1.335-.22-2.382-.397a5.835 5.835 0 0 0-.42-.038 5.292 5.292 0 0 1-.488-.057c-.4-.063-.664-.179-.794-.348-.044-.053-.032-.397.033-1.051.117-1.118.3-2.902.553-5.351.025-.248.065-.621.122-1.121.057-.5.089-.874.114-1.121.034-.336.057-.52.067-.556a.44.44 0 0 1 .379-.33.175.175 0 0 1 .069.01l1.809.231c.287.036.397.28.31.735l-.763 4.318-.35 1.986c0 .045-.02.11-.039.197-.018.086-.024.152-.032.197-.007.045.18.052.57.034l1.225-.064c.358-.019.57-.014.634.015.166.079.224.316.175.714a6.366 6.366 0 0 1-.08.455c-.037.18-.068.305-.072.328zM38.422 20.23c.148.143.22.397.217.76 0 .106-.013.255-.034.447-.021.192-.027.324-.03.397 0 .323-.252.466-.74.433a982.18 982.18 0 0 1-4.002-.29c-.384-.028-.586-.303-.606-.826a4.267 4.267 0 0 1 .033-.668c.039-.33.057-.519.055-.565l.141-3.374v-.397a3.869 3.869 0 0 1 .024-.504c.048-.412.204-.629.469-.649l2.382-.196c1.428-.116 2.19-.165 2.284-.145.239.046.354.347.348.9a6.9 6.9 0 0 1-.04.64c-.024.257-.038.413-.039.441 0-.042-.014.487-.041 1.588-.006.345-.088.557-.245.636-.077.037-.397.03-.96-.018l-1.625-.132a2.868 2.868 0 0 0-.517-.025c-.133.03-.197.159-.21.39 0 .027-.015.12-.04.281-.023.16-.034.302-.044.412-.021.358.021.56.132.61l1.78-.142c.798-.071 1.234-.073 1.308-.004zm-1.349-3.9l-1.159-.278c-.091-.019-.148-.017-.173 0-.026.017-.028.074-.024.17 0 .145.006.378.02.7 0 .2.088.297.264.293l.68-.021c.36-.01.54-.062.542-.154.003-.43-.047-.666-.15-.71zM32.711 14.691c.059.296.059.6 0 .896-.077.425-.238.62-.483.587a30.474 30.474 0 0 1-.597-.085c-.263-.04-.463-.062-.597-.085-.235-.033-.381-.024-.435.03-.055.052-.078.191-.084.443 0 .009 0 .06-.009.153a.71.71 0 0 0 0 .181c0 .155.056.237.154.248.068.013.168.03.297.046l.292.039c.398.057.623.162.675.313.06.385.1.773.117 1.162.027.347-.027.554-.162.621-.059.03-.329-.008-.813-.112l-1.191-.247c-.078-.02-.117.038-.115.167a.926.926 0 0 0 .01.17c.007.04.011.079.013.119.008.257.023.639.044 1.143l.11 2.71c.019.2.011.402-.023.6-.063.183-.222.272-.479.265h-1.343c-.405 0-.637-.036-.694-.091-.105-.105-.161-.397-.164-.884-.007-.67-.01-1.026-.012-1.072 0-.168.032-1.585.096-4.25.016-.564.036-1.412.062-2.544l.017-.622a.46.46 0 0 1 .361-.413c.01 0 .011 0 0 0a6.644 6.644 0 0 1 .469.01c.181.011.323.014.412.02 1.243.041 2.163.074 2.76.096.036 0 .157 0 .363-.007.135-.005.27-.001.405.01.317.034.498.162.544.383z"/>
    </g>
</svg>
