<svg xmlns="http://www.w3.org/2000/svg" width="189" height="90" viewBox="0 0 189 90">
    <g fill="none" fill-rule="evenodd">
        <path fill="#FFF" fill-opacity=".01" d="M0 0h189v90H0z"/>
        <g fill-rule="nonzero" opacity=".99" transform="translate(67.918 1.125)">
            <circle cx="27.347" cy="27" r="27" fill="#EE2737"/>
            <path fill="#FFF" d="M26.027 25.399a53.272 53.272 0 0 0-.633-10.148 1.946 1.946 0 0 0-2.222-1.717 2.082 2.082 0 0 0-1.579 2.415 38.14 38.14 0 0 1 .593 6.618 1.315 1.315 0 1 1-2.62.006l-.011-7.989a2.142 2.142 0 0 0-1.604-2.18 1.987 1.987 0 0 0-2.252 2.067l.01 8.102a1.388 1.388 0 0 1-1.331 1.424 1.37 1.37 0 0 1-1.31-1.434c.007-2.217.205-4.43.592-6.613a2.082 2.082 0 0 0-1.579-2.414 1.929 1.929 0 0 0-2.223 1.716 53.626 53.626 0 0 0-.654 9.476 9.37 9.37 0 0 0 4.124 7.694 4.193 4.193 0 0 1 1.934 3.325l.208 4.774a2.24 2.24 0 0 0 2.15 2.229 2.24 2.24 0 0 0 2.149-2.225l.208-4.61a4.102 4.102 0 0 1 1.983-3.287 8.882 8.882 0 0 0 4.067-7.229zM37.314 12.375c-5.25 0-7.875 7.877-7.875 13.08a8.147 8.147 0 0 0 3.642 6.675 3.918 3.918 0 0 1 1.771 3.04l.25 5.357a2.212 2.212 0 1 0 4.423 0l.25-5.357a3.918 3.918 0 0 1 1.772-3.04 8.147 8.147 0 0 0 3.641-6.675c0-5.203-2.625-13.08-7.874-13.08z"/>
        </g>
        <g fill="#000" fill-rule="nonzero">
            <path d="M46.604 82.125a5.806 5.806 0 0 0 5.045 2.465c2.353 0 4.081-1.502 4.081-3.543v-1.076h-.056a6.409 6.409 0 0 1-4.847 1.813 7.852 7.852 0 1 1-.142-15.7 6.753 6.753 0 0 1 4.99 1.757h.055v-1.474h4.025v14.624c0 4.25-3.373 7.198-8.106 7.198a9.686 9.686 0 0 1-8.049-3.57l3.004-2.494zm8.956-9.098c0-1.7-1.927-3.26-4.08-3.26-2.722 0-4.535 1.645-4.535 4.11a3.97 3.97 0 0 0 4.364 4.224c2.353 0 4.251-1.475 4.251-3.317v-1.757zM70.303 65.942c4.903 0 8.473 3.486 8.473 7.936 0 4.449-3.57 7.935-8.473 7.935a7.953 7.953 0 1 1 0-15.87zm0 3.684a4.251 4.251 0 1 0 4.279 4.252 4.07 4.07 0 0 0-4.28-4.252zM82.833 69.938h-3.6v-3.57h3.6v-1.531c0-2.636 1.843-4.252 4.932-4.252h3.939v3.6h-3.429c-.822 0-1.248.396-1.248 1.162v1.02h5.612v3.57h-5.612v11.45h-4.194v-11.45zM101.259 65.942c4.902 0 8.472 3.486 8.472 7.936 0 4.449-3.57 7.935-8.472 7.935a7.953 7.953 0 1 1 0-15.87zm0 3.684a4.251 4.251 0 1 0 4.278 4.252 4.07 4.07 0 0 0-4.278-4.252zM119.883 65.942c4.903 0 8.475 3.486 8.475 7.936 0 4.449-3.572 7.935-8.475 7.935a7.953 7.953 0 1 1 0-15.87zm0 3.684a4.251 4.251 0 1 0 4.28 4.252 4.07 4.07 0 0 0-4.28-4.252zM138.054 65.942a7.166 7.166 0 0 1 4.875 1.615h.057v-6.859h4.193v20.69h-3.882v-1.473h-.056a6.624 6.624 0 0 1-5.073 1.898 7.733 7.733 0 0 1-8.134-7.935 7.819 7.819 0 0 1 8.02-7.936zm4.932 6.943c0-1.785-1.984-3.26-4.28-3.26a4.17 4.17 0 0 0-4.477 4.253c0 2.578 1.756 4.223 4.478 4.223 2.38 0 4.279-1.475 4.279-3.317v-1.899z"/>
        </g>
    </g>
</svg>
