<?xml version="1.0" encoding="UTF-8" standalone="no"?>
<svg
   xmlns:dc="http://purl.org/dc/elements/1.1/"
   xmlns:cc="http://creativecommons.org/ns#"
   xmlns:rdf="http://www.w3.org/1999/02/22-rdf-syntax-ns#"
   xmlns:svg="http://www.w3.org/2000/svg"
   xmlns="http://www.w3.org/2000/svg"
   xmlns:sodipodi="http://sodipodi.sourceforge.net/DTD/sodipodi-0.dtd"
   xmlns:inkscape="http://www.inkscape.org/namespaces/inkscape"
   width="189"
   height="90"
   viewBox="0 0 189 90"
   version="1.1"
   id="svg16"
   sodipodi:docname="gofoodfestival_vertical.svg"
   inkscape:version="0.92.3 (2405546, 2018-03-11)">
  <metadata
     id="metadata22">
    <rdf:RDF>
      <cc:Work
         rdf:about="">
        <dc:format>image/svg+xml</dc:format>
        <dc:type
           rdf:resource="http://purl.org/dc/dcmitype/StillImage" />
      </cc:Work>
    </rdf:RDF>
  </metadata>
  <defs
     id="defs20" />
  <sodipodi:namedview
     pagecolor="#ffffff"
     bordercolor="#666666"
     borderopacity="1"
     objecttolerance="10"
     gridtolerance="10"
     guidetolerance="10"
     inkscape:pageopacity="0"
     inkscape:pageshadow="2"
     inkscape:window-width="1920"
     inkscape:window-height="986"
     id="namedview18"
     showgrid="false"
     inkscape:zoom="2.0740741"
     inkscape:cx="17.116071"
     inkscape:cy="45"
     inkscape:window-x="-11"
     inkscape:window-y="-11"
     inkscape:window-maximized="1"
     inkscape:current-layer="svg16" />
  <g
     transform="matrix(2.126085,0,0,2.126085,19.722052,16.282794)"
     style="fill:none;fill-rule:nonzero"
     id="g22">
    <path
       style="fill:#ee2b38"
       inkscape:connector-curvature="0"
       d="M 15.146,7.91 A 7.567,7.567 0 1 1 0.013,7.912 7.567,7.567 0 0 1 15.146,7.909"
       id="path2-0" />
    <path
       style="fill:#ffffff"
       inkscape:connector-curvature="0"
       d="M 7.506,7.56 A 11.937,11.937 0 0 0 7.35,5.061 0.53,0.53 0 1 0 6.317,5.236 c 0.1,0.533 0.149,1.074 0.146,1.616 a 0.356,0.356 0 1 1 -0.712,0 V 4.855 A 0.545,0.545 0 0 0 5.315,4.309 0.53,0.53 0 0 0 4.702,4.827 V 6.852 A 0.361,0.361 0 0 1 4.088,7.102 0.353,0.353 0 0 1 3.985,6.849 8.557,8.557 0 0 1 4.131,5.233 0.53,0.53 0 0 0 3.706,4.633 0.516,0.516 0 0 0 3.102,5.061 c -0.13,0.77 -0.185,1.55 -0.162,2.33 0.017,0.792 0.44,1.519 1.12,1.924 0.304,0.17 0.503,0.482 0.529,0.83 l 0.057,1.191 a 0.585,0.585 0 0 0 1.167,0 L 5.869,10.185 C 5.895,9.836 6.099,9.526 6.407,9.363 A 2.19,2.19 0 0 0 7.512,7.556 m 3.011,-3.251 c -1.38,0 -2.07,1.969 -2.07,3.27 0.015,0.682 0.376,1.31 0.957,1.667 0.27,0.163 0.443,0.446 0.466,0.76 l 0.065,1.338 a 0.5825,0.5825 0 0 0 1.165,0 l 0.065,-1.338 a 0.973,0.973 0 0 1 0.467,-0.76 c 0.58,-0.358 0.94,-0.985 0.957,-1.667 0,-1.301 -0.69,-3.27 -2.072,-3.27"
       id="path4" />
    <path
       style="fill:#ee2b38"
       inkscape:connector-curvature="0"
       d="M 15.146,7.91 A 7.567,7.567 0 1 1 0.013,7.912 7.567,7.567 0 0 1 15.146,7.909"
       id="path6-4" />
    <path
       style="fill:#ffffff"
       inkscape:connector-curvature="0"
       d="M 7.506,7.56 A 11.937,11.937 0 0 0 7.35,5.061 0.53,0.53 0 1 0 6.317,5.236 c 0.1,0.533 0.149,1.074 0.146,1.616 a 0.356,0.356 0 1 1 -0.712,0 V 4.855 A 0.545,0.545 0 0 0 5.315,4.309 0.53,0.53 0 0 0 4.702,4.827 V 6.852 A 0.361,0.361 0 0 1 4.088,7.102 0.353,0.353 0 0 1 3.985,6.849 8.557,8.557 0 0 1 4.131,5.233 0.53,0.53 0 0 0 3.706,4.633 0.516,0.516 0 0 0 3.102,5.061 c -0.13,0.77 -0.185,1.55 -0.162,2.33 0.017,0.792 0.44,1.519 1.12,1.924 0.304,0.17 0.503,0.482 0.529,0.83 l 0.057,1.191 a 0.585,0.585 0 0 0 1.167,0 L 5.869,10.185 C 5.895,9.836 6.099,9.526 6.407,9.363 A 2.19,2.19 0 0 0 7.512,7.556 m 3.011,-3.251 c -1.38,0 -2.07,1.969 -2.07,3.27 0.015,0.682 0.376,1.31 0.957,1.667 0.27,0.163 0.443,0.446 0.466,0.76 l 0.065,1.338 a 0.5825,0.5825 0 0 0 1.165,0 l 0.065,-1.338 a 0.973,0.973 0 0 1 0.467,-0.76 c 0.58,-0.358 0.94,-0.985 0.957,-1.667 0,-1.301 -0.69,-3.27 -2.072,-3.27"
       id="path8" />
    <path
       style="fill:#010101"
       inkscape:connector-curvature="0"
       d="m 33.705,6.485 c 0,-1.138 -0.78,-1.985 -1.999,-1.985 -1.217,0 -1.997,0.847 -1.997,1.985 0,1.139 0.781,1.986 1.997,1.986 1.217,0 1.999,-0.846 1.999,-1.986 m -5.956,0 c 0,-2.09 1.655,-3.706 3.956,-3.706 2.302,0 3.958,1.614 3.958,3.706 0,2.093 -1.642,3.706 -3.958,3.706 -2.316,0 -3.956,-1.615 -3.956,-3.706 m -3.131,0.379 c 0,0.867 -0.88,1.559 -1.999,1.559 -1.264,0 -2.05,-0.747 -2.05,-1.985 0,-1.147 0.84,-1.931 2.13,-1.931 1.027,0 1.919,0.718 1.919,1.53 z m 0.08,-3.955 v 0.692 h -0.027 c -0.507,-0.53 -1.345,-0.826 -2.344,-0.826 -2.145,0 -3.729,1.6 -3.729,3.664 0,2.143 1.624,3.714 3.796,3.714 0.972,0 1.784,-0.306 2.277,-0.853 h 0.026 v 0.714 c 0,0.96 -0.826,1.665 -1.918,1.665 -1.092,0 -1.741,-0.311 -2.297,-0.842 l -1.275,1.227 c 0.854,0.907 2.142,1.423 3.613,1.423 2.237,0 3.768,-1.502 3.768,-3.5 V 2.912 Z M 38.269,4.534 H 36.563 V 2.843 h 1.706 V 2.118 c 0,-1.25 0.872,-2.015 2.336,-2.015 h 1.866 V 1.81 h -1.624 c -0.39,0 -0.592,0.188 -0.592,0.55 v 0.484 h 2.66 v 1.691 h -2.66 V 9.962 H 38.27 L 38.269,4.535 Z M 43.37,6.4 c 0,-2.117 1.679,-3.758 4.015,-3.758 2.336,0 4.016,1.637 4.016,3.759 0,2.121 -1.665,3.76 -4.019,3.76 -2.353,0 -4.011,-1.639 -4.011,-3.76 z m 6.043,0 c 0,-1.154 -0.794,-2.014 -2.028,-2.014 -1.234,0 -2.028,0.86 -2.028,2.015 0,1.154 0.794,2.014 2.028,2.014 1.234,0 2.028,-0.859 2.028,-2.014 z m 2.779,0 c 0,-2.117 1.68,-3.758 4.016,-3.758 2.336,0 4.013,1.637 4.013,3.759 0,2.121 -1.665,3.76 -4.015,3.76 -2.349,0 -4.014,-1.639 -4.014,-3.76 z m 6.043,0 c 0,-1.154 -0.794,-2.014 -2.027,-2.014 -1.234,0 -2.028,0.86 -2.028,2.015 0,1.154 0.794,2.014 2.028,2.014 1.233,0 2.027,-0.859 2.027,-2.014 z m 2.78,0 c 0,-2.147 1.625,-3.753 3.8,-3.753 0.94,0 1.759,0.265 2.31,0.765 h 0.026 V 0.158 h 1.985 V 9.96 h -1.84 V 9.265 H 67.27 c -0.538,0.59 -1.37,0.9 -2.404,0.9 -2.254,-0.004 -3.851,-1.562 -3.851,-3.764 z m 6.136,0.43 v -0.9 c 0,-0.845 -0.927,-1.544 -2.028,-1.544 -1.261,0 -2.118,0.82 -2.118,2.015 0,1.195 0.833,2 2.118,2 1.129,0 2.028,-0.698 2.028,-1.57 z"
       id="path10-1" />
    <path
       style="fill:#231f20"
       inkscape:connector-curvature="0"
       d="m 65.095,14.593 -0.257,2.8 a 460.645,460.645 0 0 1 -0.256,2.799 c -0.06,0.632 -0.083,0.917 -0.07,0.853 -0.07,0.355 -0.243,0.53 -0.514,0.53 a 279.61,279.61 0 0 1 -1.445,-0.03 l -1.439,-0.02 -0.85,-0.019 c -0.324,-0.056 -0.488,-0.234 -0.495,-0.53 -0.009,-0.328 -0.018,-0.801 -0.029,-1.42 -0.01,-0.648 -0.016,-1.122 -0.022,-1.422 0,-0.384 0.058,-0.649 0.189,-0.794 0.045,-0.052 0.354,-0.103 0.926,-0.154 l 0.298,-0.007 c 0.185,0 0.34,-0.014 0.466,-0.029 0.418,-0.038 0.63,-0.123 0.634,-0.251 a 8.58,8.58 0 0 1 0.03,-0.587 c -0.03,-0.177 -0.157,-0.264 -0.385,-0.256 -0.013,0 -0.178,0.022 -0.495,0.054 -0.235,0.032 -0.472,0.05 -0.71,0.053 -0.603,0 -0.89,-0.164 -0.857,-0.491 0.07,-0.706 0.096,-1.022 0.082,-0.95 0.082,-0.367 0.285,-0.551 0.608,-0.551 0.319,0 0.794,-0.01 1.427,-0.015 0.632,-0.005 1.107,-0.007 1.426,-0.007 0.047,0 0.192,-0.012 0.438,-0.03 0.176,-0.017 0.353,-0.022 0.53,-0.018 0.423,0.016 0.67,0.152 0.738,0.406 a 0.205,0.205 0 0 1 0.023,0.085 l 0.01,10e-4 z m -3.203,4.103 c -0.105,0.035 -0.185,0.28 -0.24,0.737 -0.012,0.068 -0.02,0.138 -0.022,0.207 0.01,0.055 0.06,0.078 0.148,0.066 l 0.727,-0.094 c 0.36,-0.042 0.556,-0.123 0.592,-0.24 0.018,-0.133 0.045,-0.337 0.079,-0.611 l 0.021,-0.2 c -0.01,-0.05 -0.058,-0.067 -0.141,-0.051 z m -17.068,2.516 c 0,0.434 0,0.662 -0.008,0.706 -0.055,0.278 -0.21,0.406 -0.467,0.386 -1.051,-0.077 -1.838,-0.136 -2.361,-0.177 a 30.168,30.168 0 0 1 -0.675,-0.048 c -0.303,-0.024 -0.53,-0.04 -0.683,-0.048 a 10.318,10.318 0 0 1 -0.57,-0.047 0.45,0.45 0 0 1 -0.32,-0.338 c -0.01,-0.166 0,-0.332 0.03,-0.496 0.068,-0.514 0.174,-0.806 0.316,-0.88 0.071,-0.033 0.38,-0.051 0.926,-0.056 l 1.426,-0.01 c 0.222,0 0.356,-0.081 0.397,-0.239 0,-0.014 0.094,-1.402 0.12,-1.765 0.02,-0.167 0.025,-0.336 0.016,-0.504 -0.032,-0.14 -0.15,-0.233 -0.35,-0.278 -0.606,-0.13 -1.097,-0.232 -1.475,-0.31 -0.506,-0.109 -0.77,-0.17 -0.794,-0.18 -0.224,-0.11 -0.324,-0.368 -0.3,-0.772 l 0.214,-3.53 c 0.026,-0.444 0.114,-0.705 0.264,-0.78 0.202,-0.058 0.411,-0.09 0.621,-0.093 l 2.923,-0.232 c 0.648,-0.053 0.918,-0.08 0.807,-0.082 0.332,0.006 0.505,0.143 0.521,0.412 a 0.143,0.143 0 0 1 -0.012,0.075 c 0,0.014 -0.027,0.162 -0.067,0.446 a 4.897,4.897 0 0 1 -0.115,0.53 c -0.118,0.422 -0.31,0.634 -0.579,0.636 h -2.282 c -0.133,0 -0.302,2.171 -0.265,2.303 0.022,0.11 0.106,0.196 0.215,0.22 l 0.384,0.058 1.411,0.224 c 0.312,0.047 0.522,0.126 0.63,0.238 0.117,0.118 0.176,0.327 0.176,0.626 v 1.398 c 0,0.622 -0.074,2.299 -0.074,2.607 z"
       id="path12" />
    <path
       style="fill:#231f20"
       inkscape:connector-curvature="0"
       d="m 50.84,14.359 c 0,0.018 0.015,0.143 0.052,0.37 0.027,0.155 0.043,0.31 0.048,0.466 0,0.379 -0.132,0.572 -0.397,0.579 -0.028,0 -0.159,-0.008 -0.397,-0.017 -0.238,-0.01 -0.438,0 -0.594,0 -0.523,0.01 -0.787,0.082 -0.794,0.214 a 3662.17,3662.17 0 0 1 -0.343,6.485 c -0.01,0.253 -0.104,0.423 -0.28,0.509 a 2.314,2.314 0 0 1 -0.63,0.113 C 47,23.128 46.762,23.151 46.789,23.154 46.49,23.139 46.346,23.001 46.357,22.74 l 0.207,-4.346 a 671.677,671.677 0 0 0 0.135,-2.815 c 0,-0.035 -0.227,0 -0.692,0.118 a 2.965,2.965 0 0 1 -0.324,0.098 c -0.173,0.057 -0.35,0.101 -0.53,0.132 -0.462,0.079 -0.643,-0.02 -0.542,-0.295 0.196,-0.578 0.394,-1.154 0.595,-1.728 v -0.007 l 0.016,-0.026 a 0.586,0.586 0 0 1 0.515,-0.288 l 4.455,-0.119 c 0.265,0 0.445,0.081 0.53,0.265 0.045,0.091 0.068,0.132 0.068,0.132 0,0 0.019,0.155 0.05,0.498 z m -0.623,4.2 v -0.34 c 0,-0.183 0.01,-0.338 0.022,-0.461 0.038,-0.397 0.152,-0.612 0.344,-0.651 0.353,-0.07 0.716,-0.079 1.073,-0.026 0.49,0.072 0.73,0.265 0.72,0.57 l -0.07,2.07 c -0.045,1.428 -0.08,2.514 -0.107,3.26 -0.022,0.612 -0.028,0.89 -0.016,0.836 a 0.662,0.662 0 0 1 -0.463,0.588 0.132,0.132 0 0 1 -0.085,0.009 c -0.74,0.051 -1.092,0.08 -1.059,0.08 -0.478,-0.023 -0.708,-0.194 -0.688,-0.51 l 0.065,-1.076 0.264,-4.35 z m 0.31,6.424 c 0.625,-0.035 0.914,-0.055 0.868,-0.058 0.372,0.027 0.556,0.186 0.554,0.476 0,0.023 0.01,0.16 0.023,0.41 0.012,0.16 0.009,0.323 -0.009,0.484 -0.036,0.375 -0.19,0.58 -0.46,0.615 h -0.018 a 0.132,0.132 0 0 1 -0.035,0 h -0.9 c -0.386,0 -0.588,-0.132 -0.604,-0.41 0,-0.052 0.02,-0.353 0.062,-0.903 0.031,-0.388 0.204,-0.593 0.52,-0.614 z M 59.04,13.472 a 7311.78,7311.78 0 0 1 -1.034,8.62 33.73,33.73 0 0 1 -0.119,0.961 c -0.088,0.22 -0.319,0.334 -0.692,0.34 -0.157,0 -0.313,-0.01 -0.469,-0.029 a 12.856,12.856 0 0 0 -0.397,-0.038 l -2.064,-0.084 a 0.367,0.367 0 0 1 -0.362,-0.318 c -0.03,-0.18 -0.046,-0.361 -0.05,-0.543 l -0.53,-8.485 a 0.105,0.105 0 0 1 0.026,-0.082 c 0.051,-0.176 0.205,-0.276 0.46,-0.297 0.109,-0.006 0.218,-0.006 0.326,0 0.173,0.015 0.275,0.021 0.303,0.019 0.028,-0.003 0.11,0 0.277,-0.012 0.122,-0.007 0.244,-0.007 0.366,0 0.318,0.02 0.497,0.106 0.539,0.265 0.03,0.257 0.04,0.517 0.03,0.776 0,0.353 -0.003,0.923 -0.008,1.71 l -0.02,3.677 v 0.416 c 0,0.106 0.09,0.178 0.276,0.217 0.187,0.038 0.296,0.016 0.316,-0.085 0.073,-0.363 0.12,-0.598 0.14,-0.704 0.226,-1.134 0.265,-2.85 0.713,-5.11 0.151,-0.756 0.252,-1.158 0.301,-1.206 0.147,-0.157 0.714,-0.25 1.095,-0.315 0.42,-0.075 0.611,0.03 0.577,0.307 z m 11.122,8.522 c -0.08,0.593 -0.113,0.86 -0.1,0.802 -0.088,0.322 -0.268,0.459 -0.54,0.412 -0.54,-0.088 -1.335,-0.22 -2.382,-0.397 a 5.835,5.835 0 0 0 -0.42,-0.038 5.292,5.292 0 0 1 -0.488,-0.057 c -0.4,-0.063 -0.664,-0.179 -0.794,-0.348 -0.044,-0.053 -0.032,-0.397 0.033,-1.051 0.117,-1.118 0.3,-2.902 0.553,-5.351 0.025,-0.248 0.065,-0.621 0.122,-1.121 0.057,-0.5 0.089,-0.874 0.114,-1.121 0.034,-0.336 0.057,-0.52 0.067,-0.556 a 0.44,0.44 0 0 1 0.379,-0.33 0.175,0.175 0 0 1 0.069,0.01 l 1.809,0.231 c 0.287,0.036 0.397,0.28 0.31,0.735 l -0.763,4.318 -0.35,1.986 c 0,0.045 -0.02,0.11 -0.039,0.197 -0.018,0.086 -0.024,0.152 -0.032,0.197 -0.007,0.045 0.18,0.052 0.57,0.034 l 1.225,-0.064 c 0.358,-0.019 0.57,-0.014 0.634,0.015 0.166,0.079 0.224,0.316 0.175,0.714 a 6.366,6.366 0 0 1 -0.08,0.455 c -0.037,0.18 -0.068,0.305 -0.072,0.328 z M 38.422,20.23 c 0.148,0.143 0.22,0.397 0.217,0.76 0,0.106 -0.013,0.255 -0.034,0.447 -0.021,0.192 -0.027,0.324 -0.03,0.397 0,0.323 -0.252,0.466 -0.74,0.433 a 982.18,982.18 0 0 1 -4.002,-0.29 c -0.384,-0.028 -0.586,-0.303 -0.606,-0.826 a 4.267,4.267 0 0 1 0.033,-0.668 c 0.039,-0.33 0.057,-0.519 0.055,-0.565 l 0.141,-3.374 v -0.397 a 3.869,3.869 0 0 1 0.024,-0.504 c 0.048,-0.412 0.204,-0.629 0.469,-0.649 l 2.382,-0.196 c 1.428,-0.116 2.19,-0.165 2.284,-0.145 0.239,0.046 0.354,0.347 0.348,0.9 a 6.9,6.9 0 0 1 -0.04,0.64 c -0.024,0.257 -0.038,0.413 -0.039,0.441 0,-0.042 -0.014,0.487 -0.041,1.588 -0.006,0.345 -0.088,0.557 -0.245,0.636 -0.077,0.037 -0.397,0.03 -0.96,-0.018 l -1.625,-0.132 a 2.868,2.868 0 0 0 -0.517,-0.025 c -0.133,0.03 -0.197,0.159 -0.21,0.39 0,0.027 -0.015,0.12 -0.04,0.281 -0.023,0.16 -0.034,0.302 -0.044,0.412 -0.021,0.358 0.021,0.56 0.132,0.61 l 1.78,-0.142 c 0.798,-0.071 1.234,-0.073 1.308,-0.004 z m -1.349,-3.9 -1.159,-0.278 c -0.091,-0.019 -0.148,-0.017 -0.173,0 -0.026,0.017 -0.028,0.074 -0.024,0.17 0,0.145 0.006,0.378 0.02,0.7 0,0.2 0.088,0.297 0.264,0.293 l 0.68,-0.021 c 0.36,-0.01 0.54,-0.062 0.542,-0.154 0.003,-0.43 -0.047,-0.666 -0.15,-0.71 z m -4.362,-1.639 c 0.059,0.296 0.059,0.6 0,0.896 -0.077,0.425 -0.238,0.62 -0.483,0.587 a 30.474,30.474 0 0 1 -0.597,-0.085 c -0.263,-0.04 -0.463,-0.062 -0.597,-0.085 -0.235,-0.033 -0.381,-0.024 -0.435,0.03 -0.055,0.052 -0.078,0.191 -0.084,0.443 0,0.009 0,0.06 -0.009,0.153 a 0.71,0.71 0 0 0 0,0.181 c 0,0.155 0.056,0.237 0.154,0.248 0.068,0.013 0.168,0.03 0.297,0.046 l 0.292,0.039 c 0.398,0.057 0.623,0.162 0.675,0.313 0.06,0.385 0.1,0.773 0.117,1.162 0.027,0.347 -0.027,0.554 -0.162,0.621 -0.059,0.03 -0.329,-0.008 -0.813,-0.112 l -1.191,-0.247 c -0.078,-0.02 -0.117,0.038 -0.115,0.167 a 0.926,0.926 0 0 0 0.01,0.17 c 0.007,0.04 0.011,0.079 0.013,0.119 0.008,0.257 0.023,0.639 0.044,1.143 l 0.11,2.71 c 0.019,0.2 0.011,0.402 -0.023,0.6 -0.063,0.183 -0.222,0.272 -0.479,0.265 h -1.343 c -0.405,0 -0.637,-0.036 -0.694,-0.091 -0.105,-0.105 -0.161,-0.397 -0.164,-0.884 -0.007,-0.67 -0.01,-1.026 -0.012,-1.072 0,-0.168 0.032,-1.585 0.096,-4.25 0.016,-0.564 0.036,-1.412 0.062,-2.544 l 0.017,-0.622 a 0.46,0.46 0 0 1 0.361,-0.413 c 0.01,0 0.011,0 0,0 a 6.644,6.644 0 0 1 0.469,0.01 c 0.181,0.011 0.323,0.014 0.412,0.02 1.243,0.041 2.163,0.074 2.76,0.096 0.036,0 0.157,0 0.363,-0.007 0.135,-0.005 0.27,-10e-4 0.405,0.01 0.317,0.034 0.498,0.162 0.544,0.383 z"
       id="path14" />
    <path
       style="fill:#010101"
       inkscape:connector-curvature="0"
       d="m 33.705,6.485 c 0,-1.138 -0.78,-1.985 -1.999,-1.985 -1.217,0 -1.997,0.847 -1.997,1.985 0,1.139 0.781,1.986 1.997,1.986 1.217,0 1.999,-0.846 1.999,-1.986 m -5.956,0 c 0,-2.09 1.655,-3.706 3.956,-3.706 2.302,0 3.958,1.614 3.958,3.706 0,2.093 -1.642,3.706 -3.958,3.706 -2.316,0 -3.956,-1.615 -3.956,-3.706 m -3.131,0.379 c 0,0.867 -0.88,1.559 -1.999,1.559 -1.264,0 -2.05,-0.747 -2.05,-1.985 0,-1.147 0.84,-1.931 2.13,-1.931 1.027,0 1.919,0.718 1.919,1.53 z m 0.08,-3.955 v 0.692 h -0.027 c -0.507,-0.53 -1.345,-0.826 -2.344,-0.826 -2.145,0 -3.729,1.6 -3.729,3.664 0,2.143 1.624,3.714 3.796,3.714 0.972,0 1.784,-0.306 2.277,-0.853 h 0.026 v 0.714 c 0,0.96 -0.826,1.665 -1.918,1.665 -1.092,0 -1.741,-0.311 -2.297,-0.842 l -1.275,1.227 c 0.854,0.907 2.142,1.423 3.613,1.423 2.237,0 3.768,-1.502 3.768,-3.5 V 2.912 Z M 38.269,4.534 H 36.563 V 2.843 h 1.706 V 2.118 c 0,-1.25 0.872,-2.015 2.336,-2.015 h 1.866 V 1.81 h -1.624 c -0.39,0 -0.592,0.188 -0.592,0.55 v 0.484 h 2.66 v 1.691 h -2.66 V 9.962 H 38.27 L 38.269,4.535 Z M 43.37,6.4 c 0,-2.117 1.679,-3.758 4.015,-3.758 2.336,0 4.016,1.637 4.016,3.759 0,2.121 -1.665,3.76 -4.019,3.76 -2.353,0 -4.011,-1.639 -4.011,-3.76 z m 6.043,0 c 0,-1.154 -0.794,-2.014 -2.028,-2.014 -1.234,0 -2.028,0.86 -2.028,2.015 0,1.154 0.794,2.014 2.028,2.014 1.234,0 2.028,-0.859 2.028,-2.014 z m 2.779,0 c 0,-2.117 1.68,-3.758 4.016,-3.758 2.336,0 4.013,1.637 4.013,3.759 0,2.121 -1.665,3.76 -4.015,3.76 -2.349,0 -4.014,-1.639 -4.014,-3.76 z m 6.043,0 c 0,-1.154 -0.794,-2.014 -2.027,-2.014 -1.234,0 -2.028,0.86 -2.028,2.015 0,1.154 0.794,2.014 2.028,2.014 1.233,0 2.027,-0.859 2.027,-2.014 z m 2.78,0 c 0,-2.147 1.625,-3.753 3.8,-3.753 0.94,0 1.759,0.265 2.31,0.765 h 0.026 V 0.158 h 1.985 V 9.96 h -1.84 V 9.265 H 67.27 c -0.538,0.59 -1.37,0.9 -2.404,0.9 -2.254,-0.004 -3.851,-1.562 -3.851,-3.764 z m 6.136,0.43 v -0.9 c 0,-0.845 -0.927,-1.544 -2.028,-1.544 -1.261,0 -2.118,0.82 -2.118,2.015 0,1.195 0.833,2 2.118,2 1.129,0 2.028,-0.698 2.028,-1.57 z"
       id="path16" />
    <path
       style="fill:#231f20"
       inkscape:connector-curvature="0"
       d="m 65.095,14.593 -0.257,2.8 a 460.645,460.645 0 0 1 -0.256,2.799 c -0.06,0.632 -0.083,0.917 -0.07,0.853 -0.07,0.355 -0.243,0.53 -0.514,0.53 a 279.61,279.61 0 0 1 -1.445,-0.03 l -1.439,-0.02 -0.85,-0.019 c -0.324,-0.056 -0.488,-0.234 -0.495,-0.53 -0.009,-0.328 -0.018,-0.801 -0.029,-1.42 -0.01,-0.648 -0.016,-1.122 -0.022,-1.422 0,-0.384 0.058,-0.649 0.189,-0.794 0.045,-0.052 0.354,-0.103 0.926,-0.154 l 0.298,-0.007 c 0.185,0 0.34,-0.014 0.466,-0.029 0.418,-0.038 0.63,-0.123 0.634,-0.251 a 8.58,8.58 0 0 1 0.03,-0.587 c -0.03,-0.177 -0.157,-0.264 -0.385,-0.256 -0.013,0 -0.178,0.022 -0.495,0.054 -0.235,0.032 -0.472,0.05 -0.71,0.053 -0.603,0 -0.89,-0.164 -0.857,-0.491 0.07,-0.706 0.096,-1.022 0.082,-0.95 0.082,-0.367 0.285,-0.551 0.608,-0.551 0.319,0 0.794,-0.01 1.427,-0.015 0.632,-0.005 1.107,-0.007 1.426,-0.007 0.047,0 0.192,-0.012 0.438,-0.03 0.176,-0.017 0.353,-0.022 0.53,-0.018 0.423,0.016 0.67,0.152 0.738,0.406 a 0.205,0.205 0 0 1 0.023,0.085 l 0.01,10e-4 z m -3.203,4.103 c -0.105,0.035 -0.185,0.28 -0.24,0.737 -0.012,0.068 -0.02,0.138 -0.022,0.207 0.01,0.055 0.06,0.078 0.148,0.066 l 0.727,-0.094 c 0.36,-0.042 0.556,-0.123 0.592,-0.24 0.018,-0.133 0.045,-0.337 0.079,-0.611 l 0.021,-0.2 c -0.01,-0.05 -0.058,-0.067 -0.141,-0.051 z m -17.068,2.516 c 0,0.434 0,0.662 -0.008,0.706 -0.055,0.278 -0.21,0.406 -0.467,0.386 -1.051,-0.077 -1.838,-0.136 -2.361,-0.177 a 30.168,30.168 0 0 1 -0.675,-0.048 c -0.303,-0.024 -0.53,-0.04 -0.683,-0.048 a 10.318,10.318 0 0 1 -0.57,-0.047 0.45,0.45 0 0 1 -0.32,-0.338 c -0.01,-0.166 0,-0.332 0.03,-0.496 0.068,-0.514 0.174,-0.806 0.316,-0.88 0.071,-0.033 0.38,-0.051 0.926,-0.056 l 1.426,-0.01 c 0.222,0 0.356,-0.081 0.397,-0.239 0,-0.014 0.094,-1.402 0.12,-1.765 0.02,-0.167 0.025,-0.336 0.016,-0.504 -0.032,-0.14 -0.15,-0.233 -0.35,-0.278 -0.606,-0.13 -1.097,-0.232 -1.475,-0.31 -0.506,-0.109 -0.77,-0.17 -0.794,-0.18 -0.224,-0.11 -0.324,-0.368 -0.3,-0.772 l 0.214,-3.53 c 0.026,-0.444 0.114,-0.705 0.264,-0.78 0.202,-0.058 0.411,-0.09 0.621,-0.093 l 2.923,-0.232 c 0.648,-0.053 0.918,-0.08 0.807,-0.082 0.332,0.006 0.505,0.143 0.521,0.412 a 0.143,0.143 0 0 1 -0.012,0.075 c 0,0.014 -0.027,0.162 -0.067,0.446 a 4.897,4.897 0 0 1 -0.115,0.53 c -0.118,0.422 -0.31,0.634 -0.579,0.636 h -2.282 c -0.133,0 -0.302,2.171 -0.265,2.303 0.022,0.11 0.106,0.196 0.215,0.22 l 0.384,0.058 1.411,0.224 c 0.312,0.047 0.522,0.126 0.63,0.238 0.117,0.118 0.176,0.327 0.176,0.626 v 1.398 c 0,0.622 -0.074,2.299 -0.074,2.607 z"
       id="path18" />
    <path
       style="fill:#231f20"
       inkscape:connector-curvature="0"
       d="m 50.84,14.359 c 0,0.018 0.015,0.143 0.052,0.37 0.027,0.155 0.043,0.31 0.048,0.466 0,0.379 -0.132,0.572 -0.397,0.579 -0.028,0 -0.159,-0.008 -0.397,-0.017 -0.238,-0.01 -0.438,0 -0.594,0 -0.523,0.01 -0.787,0.082 -0.794,0.214 a 3662.17,3662.17 0 0 1 -0.343,6.485 c -0.01,0.253 -0.104,0.423 -0.28,0.509 a 2.314,2.314 0 0 1 -0.63,0.113 C 47,23.128 46.762,23.151 46.789,23.154 46.49,23.139 46.346,23.001 46.357,22.74 l 0.207,-4.346 a 671.677,671.677 0 0 0 0.135,-2.815 c 0,-0.035 -0.227,0 -0.692,0.118 a 2.965,2.965 0 0 1 -0.324,0.098 c -0.173,0.057 -0.35,0.101 -0.53,0.132 -0.462,0.079 -0.643,-0.02 -0.542,-0.295 0.196,-0.578 0.394,-1.154 0.595,-1.728 v -0.007 l 0.016,-0.026 a 0.586,0.586 0 0 1 0.515,-0.288 l 4.455,-0.119 c 0.265,0 0.445,0.081 0.53,0.265 0.045,0.091 0.068,0.132 0.068,0.132 0,0 0.019,0.155 0.05,0.498 z m -0.623,4.2 v -0.34 c 0,-0.183 0.01,-0.338 0.022,-0.461 0.038,-0.397 0.152,-0.612 0.344,-0.651 0.353,-0.07 0.716,-0.079 1.073,-0.026 0.49,0.072 0.73,0.265 0.72,0.57 l -0.07,2.07 c -0.045,1.428 -0.08,2.514 -0.107,3.26 -0.022,0.612 -0.028,0.89 -0.016,0.836 a 0.662,0.662 0 0 1 -0.463,0.588 0.132,0.132 0 0 1 -0.085,0.009 c -0.74,0.051 -1.092,0.08 -1.059,0.08 -0.478,-0.023 -0.708,-0.194 -0.688,-0.51 l 0.065,-1.076 0.264,-4.35 z m 0.31,6.424 c 0.625,-0.035 0.914,-0.055 0.868,-0.058 0.372,0.027 0.556,0.186 0.554,0.476 0,0.023 0.01,0.16 0.023,0.41 0.012,0.16 0.009,0.323 -0.009,0.484 -0.036,0.375 -0.19,0.58 -0.46,0.615 h -0.018 a 0.132,0.132 0 0 1 -0.035,0 h -0.9 c -0.386,0 -0.588,-0.132 -0.604,-0.41 0,-0.052 0.02,-0.353 0.062,-0.903 0.031,-0.388 0.204,-0.593 0.52,-0.614 z M 59.04,13.472 a 7311.78,7311.78 0 0 1 -1.034,8.62 33.73,33.73 0 0 1 -0.119,0.961 c -0.088,0.22 -0.319,0.334 -0.692,0.34 -0.157,0 -0.313,-0.01 -0.469,-0.029 a 12.856,12.856 0 0 0 -0.397,-0.038 l -2.064,-0.084 a 0.367,0.367 0 0 1 -0.362,-0.318 c -0.03,-0.18 -0.046,-0.361 -0.05,-0.543 l -0.53,-8.485 a 0.105,0.105 0 0 1 0.026,-0.082 c 0.051,-0.176 0.205,-0.276 0.46,-0.297 0.109,-0.006 0.218,-0.006 0.326,0 0.173,0.015 0.275,0.021 0.303,0.019 0.028,-0.003 0.11,0 0.277,-0.012 0.122,-0.007 0.244,-0.007 0.366,0 0.318,0.02 0.497,0.106 0.539,0.265 0.03,0.257 0.04,0.517 0.03,0.776 0,0.353 -0.003,0.923 -0.008,1.71 l -0.02,3.677 v 0.416 c 0,0.106 0.09,0.178 0.276,0.217 0.187,0.038 0.296,0.016 0.316,-0.085 0.073,-0.363 0.12,-0.598 0.14,-0.704 0.226,-1.134 0.265,-2.85 0.713,-5.11 0.151,-0.756 0.252,-1.158 0.301,-1.206 0.147,-0.157 0.714,-0.25 1.095,-0.315 0.42,-0.075 0.611,0.03 0.577,0.307 z m 11.122,8.522 c -0.08,0.593 -0.113,0.86 -0.1,0.802 -0.088,0.322 -0.268,0.459 -0.54,0.412 -0.54,-0.088 -1.335,-0.22 -2.382,-0.397 a 5.835,5.835 0 0 0 -0.42,-0.038 5.292,5.292 0 0 1 -0.488,-0.057 c -0.4,-0.063 -0.664,-0.179 -0.794,-0.348 -0.044,-0.053 -0.032,-0.397 0.033,-1.051 0.117,-1.118 0.3,-2.902 0.553,-5.351 0.025,-0.248 0.065,-0.621 0.122,-1.121 0.057,-0.5 0.089,-0.874 0.114,-1.121 0.034,-0.336 0.057,-0.52 0.067,-0.556 a 0.44,0.44 0 0 1 0.379,-0.33 0.175,0.175 0 0 1 0.069,0.01 l 1.809,0.231 c 0.287,0.036 0.397,0.28 0.31,0.735 l -0.763,4.318 -0.35,1.986 c 0,0.045 -0.02,0.11 -0.039,0.197 -0.018,0.086 -0.024,0.152 -0.032,0.197 -0.007,0.045 0.18,0.052 0.57,0.034 l 1.225,-0.064 c 0.358,-0.019 0.57,-0.014 0.634,0.015 0.166,0.079 0.224,0.316 0.175,0.714 a 6.366,6.366 0 0 1 -0.08,0.455 c -0.037,0.18 -0.068,0.305 -0.072,0.328 z M 38.422,20.23 c 0.148,0.143 0.22,0.397 0.217,0.76 0,0.106 -0.013,0.255 -0.034,0.447 -0.021,0.192 -0.027,0.324 -0.03,0.397 0,0.323 -0.252,0.466 -0.74,0.433 a 982.18,982.18 0 0 1 -4.002,-0.29 c -0.384,-0.028 -0.586,-0.303 -0.606,-0.826 a 4.267,4.267 0 0 1 0.033,-0.668 c 0.039,-0.33 0.057,-0.519 0.055,-0.565 l 0.141,-3.374 v -0.397 a 3.869,3.869 0 0 1 0.024,-0.504 c 0.048,-0.412 0.204,-0.629 0.469,-0.649 l 2.382,-0.196 c 1.428,-0.116 2.19,-0.165 2.284,-0.145 0.239,0.046 0.354,0.347 0.348,0.9 a 6.9,6.9 0 0 1 -0.04,0.64 c -0.024,0.257 -0.038,0.413 -0.039,0.441 0,-0.042 -0.014,0.487 -0.041,1.588 -0.006,0.345 -0.088,0.557 -0.245,0.636 -0.077,0.037 -0.397,0.03 -0.96,-0.018 l -1.625,-0.132 a 2.868,2.868 0 0 0 -0.517,-0.025 c -0.133,0.03 -0.197,0.159 -0.21,0.39 0,0.027 -0.015,0.12 -0.04,0.281 -0.023,0.16 -0.034,0.302 -0.044,0.412 -0.021,0.358 0.021,0.56 0.132,0.61 l 1.78,-0.142 c 0.798,-0.071 1.234,-0.073 1.308,-0.004 z m -1.349,-3.9 -1.159,-0.278 c -0.091,-0.019 -0.148,-0.017 -0.173,0 -0.026,0.017 -0.028,0.074 -0.024,0.17 0,0.145 0.006,0.378 0.02,0.7 0,0.2 0.088,0.297 0.264,0.293 l 0.68,-0.021 c 0.36,-0.01 0.54,-0.062 0.542,-0.154 0.003,-0.43 -0.047,-0.666 -0.15,-0.71 z m -4.362,-1.639 c 0.059,0.296 0.059,0.6 0,0.896 -0.077,0.425 -0.238,0.62 -0.483,0.587 a 30.474,30.474 0 0 1 -0.597,-0.085 c -0.263,-0.04 -0.463,-0.062 -0.597,-0.085 -0.235,-0.033 -0.381,-0.024 -0.435,0.03 -0.055,0.052 -0.078,0.191 -0.084,0.443 0,0.009 0,0.06 -0.009,0.153 a 0.71,0.71 0 0 0 0,0.181 c 0,0.155 0.056,0.237 0.154,0.248 0.068,0.013 0.168,0.03 0.297,0.046 l 0.292,0.039 c 0.398,0.057 0.623,0.162 0.675,0.313 0.06,0.385 0.1,0.773 0.117,1.162 0.027,0.347 -0.027,0.554 -0.162,0.621 -0.059,0.03 -0.329,-0.008 -0.813,-0.112 l -1.191,-0.247 c -0.078,-0.02 -0.117,0.038 -0.115,0.167 a 0.926,0.926 0 0 0 0.01,0.17 c 0.007,0.04 0.011,0.079 0.013,0.119 0.008,0.257 0.023,0.639 0.044,1.143 l 0.11,2.71 c 0.019,0.2 0.011,0.402 -0.023,0.6 -0.063,0.183 -0.222,0.272 -0.479,0.265 h -1.343 c -0.405,0 -0.637,-0.036 -0.694,-0.091 -0.105,-0.105 -0.161,-0.397 -0.164,-0.884 -0.007,-0.67 -0.01,-1.026 -0.012,-1.072 0,-0.168 0.032,-1.585 0.096,-4.25 0.016,-0.564 0.036,-1.412 0.062,-2.544 l 0.017,-0.622 a 0.46,0.46 0 0 1 0.361,-0.413 c 0.01,0 0.011,0 0,0 a 6.644,6.644 0 0 1 0.469,0.01 c 0.181,0.011 0.323,0.014 0.412,0.02 1.243,0.041 2.163,0.074 2.76,0.096 0.036,0 0.157,0 0.363,-0.007 0.135,-0.005 0.27,-10e-4 0.405,0.01 0.317,0.034 0.498,0.162 0.544,0.383 z"
       id="path20" />
  </g>
</svg>
