<svg xmlns="http://www.w3.org/2000/svg" width="189" height="90" viewBox="0 0 189 90">
    <g fill="none" fill-rule="evenodd">
        <path fill="#FFF" fill-opacity=".01" d="M0 0h189v90H0z"/>
        <g fill-rule="nonzero" transform="translate(67.406 1.125)">
            <circle cx="27" cy="27" r="27" fill="#EE2737"/>
            <path fill="#FFF" d="M34.71 19.122a109.02 109.02 0 0 0-15.42 0 1.194 1.194 0 0 1-1.287-1.264c.087-1.306.19-2.611.31-3.917a2.542 2.542 0 0 1 2.192-2.288 52.503 52.503 0 0 1 12.99 0 2.542 2.542 0 0 1 2.192 2.288c.12 1.306.223 2.611.31 3.917a1.194 1.194 0 0 1-1.286 1.264zM39.682 27.324a487.6 487.6 0 0 1-3.759-5.689 153.025 153.025 0 0 0-17.846 0 493.64 493.64 0 0 1-3.76 5.69 4.751 4.751 0 0 0-.815 2.775c.07 2.617.258 5.234.563 7.851a6.146 6.146 0 0 0 5.2 5.345 51.94 51.94 0 0 0 15.47 0 6.146 6.146 0 0 0 5.2-5.345c.306-2.617.493-5.234.563-7.851a4.752 4.752 0 0 0-.816-2.776zm-7.62 6.426h-3.937v3.938a1.125 1.125 0 0 1-2.25 0V33.75h-3.938a1.125 1.125 0 0 1 0-2.25h3.938v-3.938a1.125 1.125 0 0 1 2.25 0V31.5h3.938a1.125 1.125 0 0 1 0 2.25z"/>
        </g>
        <g fill="#000" fill-rule="nonzero">
            <path d="M47.729 82.125a5.806 5.806 0 0 0 5.045 2.465c2.353 0 4.081-1.502 4.081-3.543v-1.076H56.8a6.409 6.409 0 0 1-4.847 1.813 7.852 7.852 0 1 1-.142-15.7 6.753 6.753 0 0 1 4.99 1.757h.055v-1.474h4.025v14.624c0 4.25-3.373 7.198-8.106 7.198a9.686 9.686 0 0 1-8.049-3.57l3.004-2.494zm8.956-9.098c0-1.7-1.927-3.26-4.08-3.26-2.722 0-4.535 1.645-4.535 4.11a3.97 3.97 0 0 0 4.364 4.224c2.353 0 4.251-1.475 4.251-3.317v-1.757zM71.428 65.942c4.903 0 8.473 3.486 8.473 7.936 0 4.449-3.57 7.935-8.473 7.935a7.953 7.953 0 1 1 0-15.87zm0 3.684a4.251 4.251 0 1 0 4.279 4.252 4.07 4.07 0 0 0-4.28-4.252zM82.173 66.367h3.685v1.445h.056a6.544 6.544 0 0 1 9.381.227h.058a6.566 6.566 0 0 1 4.902-2.097c4.053 0 6.858 2.664 6.858 6.461v8.985h-4.052v-8.332a3.237 3.237 0 1 0-6.463 0v8.332h-3.882v-8.332a3.25 3.25 0 1 0-6.49 0v8.332h-4.053v-15.02zM117.38 65.942a7.774 7.774 0 0 1 8.162 8.077v1.19h-12.187c.143 1.956 1.758 3.203 4.251 3.203a5.98 5.98 0 0 0 4.62-2.24l2.607 2.609a9.188 9.188 0 0 1-7.198 3.032c-5.243 0-8.418-3.145-8.418-7.907a7.796 7.796 0 0 1 8.163-7.964zm4.08 6.32c-.197-1.786-1.756-2.92-3.995-2.92-2.268 0-3.827 1.134-4.053 2.92h8.049zM135.21 65.942a7.17 7.17 0 0 1 4.874 1.615h.058v-6.859h4.194v20.69h-3.882v-1.473h-.058a6.626 6.626 0 0 1-5.073 1.898 7.734 7.734 0 0 1-8.134-7.935 7.82 7.82 0 0 1 8.02-7.936zm4.932 6.943c0-1.785-1.985-3.26-4.28-3.26a4.17 4.17 0 0 0-4.479 4.253c0 2.578 1.758 4.223 4.478 4.223 2.382 0 4.28-1.475 4.28-3.317v-1.899z"/>
        </g>
    </g>
</svg>
