<svg xmlns="http://www.w3.org/2000/svg" width="189" height="90" viewBox="0 0 189 90">
    <g fill="none" fill-rule="evenodd">
        <path fill="#FFF" fill-opacity=".01" d="M0 0h189v90H0z"/>
        <g fill-rule="nonzero" transform="translate(66.84 1.125)">
            <circle cx="27" cy="27" r="27" fill="#00AED6"/>
            <path fill="#FFF" d="M44.394 18.643a5.32 5.32 0 0 0-4.033-2.742l-2.812-.35a18.666 18.666 0 0 0-.385-1.79 37.98 37.98 0 0 0-20.328 0c-.16.582-.28 1.183-.385 1.79l-2.812.35a5.32 5.32 0 0 0-4.033 2.742 5.046 5.046 0 0 0-.032 4.736c2.112 4.03 6.583 10.62 13.788 12.4a2.243 2.243 0 0 1 1.716 2.17c-.079.002-6.264.752-6.264 2.937v2.388c5.428.801 10.944.801 16.372 0v-2.388c0-2.185-6.185-2.935-6.264-2.938a2.243 2.243 0 0 1 1.717-2.169c7.204-1.78 11.675-8.37 13.787-12.4a5.047 5.047 0 0 0-.032-4.736zM12.985 21.66A1.32 1.32 0 0 1 13 20.396a1.463 1.463 0 0 1 1.122-.764l2.017-.25a24.815 24.815 0 0 0 1.724 8.98 26.955 26.955 0 0 1-4.877-6.702zM27 25.875a3.375 3.375 0 1 1 0-6.75 3.375 3.375 0 0 1 0 6.75zm14.015-4.215a26.96 26.96 0 0 1-4.877 6.701 24.812 24.812 0 0 0 1.724-8.98l2.017.251c.476.055.896.34 1.122.764.22.392.224.868.014 1.264z"/>
        </g>
        <g fill="#000" fill-rule="nonzero">
            <path d="M33.104 82.3a5.805 5.805 0 0 0 5.045 2.465c2.352 0 4.081-1.502 4.081-3.543v-1.077h-.057a6.406 6.406 0 0 1-4.846 1.814 7.852 7.852 0 1 1-.142-15.7 6.748 6.748 0 0 1 4.988 1.756h.057v-1.473h4.025v14.624c0 4.25-3.373 7.198-8.106 7.198a9.686 9.686 0 0 1-8.049-3.57l3.004-2.494zm8.956-9.098c0-1.7-1.927-3.26-4.081-3.26-2.72 0-4.534 1.645-4.534 4.11a3.97 3.97 0 0 0 4.364 4.223c2.353 0 4.251-1.474 4.251-3.316v-1.757zM56.803 66.117c4.902 0 8.473 3.486 8.473 7.935 0 4.45-3.571 7.936-8.473 7.936a7.953 7.953 0 1 1 0-15.871zm0 3.684a4.251 4.251 0 1 0 4.279 4.251 4.07 4.07 0 0 0-4.28-4.251zM67.548 66.542h4.025v1.331h.056a6.694 6.694 0 0 1 4.847-1.756 7.937 7.937 0 0 1 .027 15.87A7.272 7.272 0 0 1 71.8 80.4h-.056v7.539h-4.195V66.542zm8.275 3.287c-2.21 0-4.08 1.56-4.08 3.26v1.898c0 1.814 1.814 3.316 4.109 3.316a4.237 4.237 0 1 0-.029-8.474zM94.391 66.117c4.903 0 8.474 3.486 8.474 7.935 0 4.45-3.57 7.936-8.474 7.936a7.953 7.953 0 1 1 0-15.871zm0 3.684a4.251 4.251 0 1 0 4.28 4.251 4.07 4.07 0 0 0-4.28-4.251zM105.024 59.881h4.336v4.195h-4.336V59.88zm.084 6.661h4.195v15.02h-4.195v-15.02zM112.14 66.542h4.053v1.417h.056a7.413 7.413 0 0 1 5.073-1.842c4.25 0 7.198 2.806 7.198 6.886v8.56h-4.194V73.54c0-2.295-1.502-3.683-3.911-3.683a3.717 3.717 0 0 0-4.08 3.683v8.021h-4.195v-15.02zM137.368 70.113v6.349c0 .934.312 1.218 1.53 1.218h2.749v3.882h-3.174c-3.77 0-5.3-1.473-5.3-4.846v-6.603h-3.543v-3.571h3.543v-3.77h4.195v3.77h4.846v3.57h-4.846zM146.695 75.753c.595 1.927 2.126 2.89 4.535 2.89 2.182 0 3.429-.482 3.429-1.304 0-.877-.906-1.275-3.712-1.7-5.499-.85-7.455-2.182-7.455-4.875 0-2.777 2.778-4.647 6.916-4.647 3.77 0 7.199 1.927 7.992 4.534l-3.826 1.162a4.263 4.263 0 0 0-4.194-2.352c-1.73 0-2.863.51-2.863 1.303 0 .794.794 1.078 4.11 1.645 5.072.793 7.085 2.182 7.085 4.902 0 2.806-3.004 4.677-7.51 4.677a10.33 10.33 0 0 1-5.612-1.446 5.949 5.949 0 0 1-2.835-3.854l3.94-.935z"/>
        </g>
    </g>
</svg>