<svg xmlns="http://www.w3.org/2000/svg" width="189" height="90" viewBox="0 0 189 90">
    <g fill="none" fill-rule="evenodd">
        <path fill="#FFF" fill-opacity=".01" d="M0 0h189v90H0z"/>
        <g transform="translate(66.313 1.125)">
            <circle cx="27" cy="27" r="27" fill="#00AED6" fill-rule="nonzero"/>
            <path fill="#FFF" d="M36 30.938a2.815 2.815 0 0 0 2.813 2.812h4.607c.272-1.863.42-3.742.445-5.625h-5.053A2.815 2.815 0 0 0 36 30.938z"/>
            <path fill="#FFF" d="M38.813 36a5.062 5.062 0 0 1 0-10.125h4.989a6.245 6.245 0 0 0-6.492-5.625H20.25a1.125 1.125 0 0 1 0-2.25h17.286c-.113-2.221-1.804-4.626-3.945-4.959a43.755 43.755 0 0 0-15.215 0c-2.817.445-4.958 3.228-5.41 6.005a54.331 54.331 0 0 0 0 15.992 7.311 7.311 0 0 0 2.145 3.954c.322-.048.64-.113.955-.195a8.575 8.575 0 0 0 3.419-1.442 9.877 9.877 0 0 0 2.659-2.405 6.018 6.018 0 0 0 1.139-1.924l-1.52-.721a.785.785 0 0 1 0-1.443l5.318-2.645a.748.748 0 0 1 1.14.601l1.013 5.53a.804.804 0 0 1-1.14.842l-1.392-.6c-.127.12-.127.36-.254.48a10.29 10.29 0 0 1-1.266 1.924 14.97 14.97 0 0 1-3.672 3.126c-.615.382-1.265.707-1.94.97 6.104.725 12.275.71 18.376-.048 2.602-.308 4.36-2.52 5.059-5.042h-4.193z"/>
        </g>
        <g fill="#000" fill-rule="nonzero">
            <path d="M34.875 66.367h4.023V67.7h.057a6.694 6.694 0 0 1 4.847-1.757 7.937 7.937 0 0 1 .028 15.871 7.27 7.27 0 0 1-4.704-1.588h-.056v7.54h-4.195V66.366zm8.275 3.287c-2.21 0-4.08 1.56-4.08 3.26v1.899c0 1.813 1.812 3.315 4.108 3.315a4.237 4.237 0 1 0-.028-8.474zM59.507 72.432c2.75-.368 3.572-.765 3.572-1.53 0-.993-1.05-1.587-2.665-1.587a3.542 3.542 0 0 0-3.741 2.692l-3.967-.822c.567-3.061 3.712-5.243 7.595-5.243 4.393 0 7.113 2.24 7.113 5.894v9.552h-3.77v-1.644h-.055a6.202 6.202 0 0 1-5.074 2.069c-3.315 0-5.611-1.814-5.611-4.478 0-2.806 1.87-4.25 6.603-4.903zm3.912 1.587h-.058c-.368.539-1.16.85-3.202 1.219-2.465.453-3.344.935-3.344 1.813 0 .908.737 1.305 2.324 1.305 2.409 0 4.28-1.106 4.28-2.551v-1.786zM75.014 80.566L68.07 66.367h4.62l4.563 9.806h.057l4.505-9.806h4.648l-10.4 21.397h-4.62zM87.857 60.698h4.194v20.69h-4.194zM101.094 72.432c2.749-.368 3.57-.765 3.57-1.53 0-.993-1.048-1.587-2.664-1.587a3.541 3.541 0 0 0-3.74 2.692l-3.969-.822c.567-3.061 3.714-5.243 7.596-5.243 4.393 0 7.113 2.24 7.113 5.894v9.552h-3.769v-1.644h-.057a6.202 6.202 0 0 1-5.073 2.069c-3.316 0-5.612-1.814-5.612-4.478 0-2.806 1.872-4.25 6.605-4.903zm3.911 1.587h-.057c-.37.539-1.162.85-3.204 1.219-2.465.453-3.344.935-3.344 1.813 0 .908.738 1.305 2.325 1.305 2.408 0 4.28-1.106 4.28-2.551v-1.786zM117.876 69.938v6.349c0 .935.312 1.218 1.53 1.218h2.749v3.883h-3.174c-3.77 0-5.3-1.473-5.3-4.846v-6.604h-3.543v-3.57h3.543v-3.77h4.195v3.77h4.846v3.57h-4.846zM131.737 65.942a7.775 7.775 0 0 1 8.163 8.077v1.19h-12.187c.142 1.956 1.756 3.203 4.25 3.203a5.982 5.982 0 0 0 4.621-2.24l2.606 2.609a9.185 9.185 0 0 1-7.198 3.032c-5.243 0-8.418-3.145-8.418-7.907a7.796 7.796 0 0 1 8.163-7.964zm4.081 6.32c-.198-1.786-1.756-2.92-3.995-2.92-2.268 0-3.827 1.134-4.054 2.92h8.05zM142.143 66.367h3.939v1.445h.056a5.812 5.812 0 0 1 4.422-1.728c.837.016 1.667.15 2.466.396l-.879 3.77a8.614 8.614 0 0 0-2.181-.312c-2.297 0-3.628 1.53-3.628 4.591v6.859h-4.195v-15.02z"/>
        </g>
    </g>
</svg>