<svg xmlns="http://www.w3.org/2000/svg" width="189" height="90" viewBox="0 0 189 90">
    <g fill="none" fill-rule="evenodd">
        <path fill="#FFF" fill-opacity=".01" d="M0 0h189v90H0z"/>
        <g fill-rule="nonzero" transform="translate(67.5 1.125)">
            <circle cx="27" cy="27" r="27" fill="#F06400"/>
            <path fill="#FFF" d="M35.156 21.715a11.647 11.647 0 0 0-5.27-2.867 65.191 65.191 0 0 0-.567-6.72 2.334 2.334 0 0 0-2.287-2.003h-.04a2.334 2.334 0 0 0-2.286 2.004 64.977 64.977 0 0 0-.562 6.71 11.65 11.65 0 0 0-5.3 2.87 42.611 42.611 0 0 0 16.312.006zM37.018 23.625A44.583 44.583 0 0 1 27 24.812a44.303 44.303 0 0 1-10.018-1.187c-4.707 6.3-4.883 14.635-4.453 14.6a14.403 14.403 0 0 0 4.982 1.524c.19-1.765.672-5.726 1.282-6.735.229 2.378.595 4.74 1.098 7.076 7.845.898 17.916.34 21.58-1.865.43.035.252-8.3-4.453-14.6z"/>
        </g>
        <g fill="#000" fill-rule="nonzero">
            <path d="M42.106 82.177a5.805 5.805 0 0 0 5.045 2.465c2.352 0 4.081-1.502 4.081-3.543v-1.077h-.057a6.407 6.407 0 0 1-4.846 1.814 7.852 7.852 0 1 1-.142-15.7 6.75 6.75 0 0 1 4.988 1.756h.057V66.42h4.024v14.624c0 4.25-3.372 7.198-8.105 7.198a9.686 9.686 0 0 1-8.049-3.57l3.004-2.494zm8.956-9.098c0-1.7-1.927-3.26-4.081-3.26-2.72 0-4.535 1.645-4.535 4.11a3.97 3.97 0 0 0 4.365 4.223c2.352 0 4.251-1.474 4.251-3.316v-1.757zM65.804 65.994c4.903 0 8.474 3.486 8.474 7.935 0 4.45-3.571 7.936-8.474 7.936a7.953 7.953 0 1 1 0-15.871zm0 3.683a4.251 4.251 0 1 0 4.28 4.252 4.07 4.07 0 0 0-4.28-4.252zM84.259 65.994a8.523 8.523 0 0 1 4.96 1.444 6.669 6.669 0 0 1 2.749 3.827l-3.911 1.134a3.776 3.776 0 0 0-3.798-2.722 4.254 4.254 0 0 0 0 8.503 3.697 3.697 0 0 0 3.798-2.72l3.91 1.133a6.67 6.67 0 0 1-2.749 3.826 8.524 8.524 0 0 1-4.96 1.446 7.944 7.944 0 1 1 0-15.871zM94.04 60.75h4.195v20.69H94.04zM108.638 65.994a7.774 7.774 0 0 1 8.162 8.077v1.19h-12.186c.141 1.955 1.757 3.202 4.25 3.202a5.98 5.98 0 0 0 4.62-2.239l2.608 2.608a9.188 9.188 0 0 1-7.199 3.033c-5.243 0-8.417-3.146-8.417-7.907a7.796 7.796 0 0 1 8.162-7.964zm4.081 6.32c-.198-1.786-1.757-2.92-3.996-2.92-2.267 0-3.826 1.134-4.053 2.92h8.05zM124.711 72.483c2.75-.368 3.571-.764 3.571-1.53 0-.992-1.048-1.586-2.664-1.586a3.542 3.542 0 0 0-3.741 2.691l-3.968-.822c.567-3.06 3.713-5.242 7.596-5.242 4.392 0 7.113 2.239 7.113 5.894v9.551h-3.77v-1.643h-.056a6.2 6.2 0 0 1-5.073 2.069c-3.316 0-5.612-1.814-5.612-4.478 0-2.806 1.871-4.251 6.604-4.904zm3.912 1.588h-.058c-.368.538-1.161.85-3.202 1.218-2.465.454-3.344.935-3.344 1.814 0 .908.737 1.304 2.324 1.304 2.409 0 4.28-1.105 4.28-2.55V74.07zM135.315 66.419h4.053v1.417h.056a7.413 7.413 0 0 1 5.073-1.842c4.251 0 7.199 2.806 7.199 6.886v8.56h-4.195v-8.022c0-2.295-1.501-3.683-3.91-3.683a3.718 3.718 0 0 0-4.082 3.683v8.021h-4.194V66.42z"/>
        </g>
    </g>
</svg>
