<svg xmlns="http://www.w3.org/2000/svg" width="189" height="90" viewBox="0 0 189 90">
    <g fill="none" fill-rule="evenodd">
        <path fill="#FFF" fill-opacity=".01" d="M0 0h189v90H0z"/>
        <path fill="#000" fill-rule="nonzero" d="M86.063 74.475a4.273 4.273 0 0 0-4.276-4.275 4.273 4.273 0 0 0-4.275 4.275 4.273 4.273 0 0 0 4.275 4.275c2.25.112 4.163-1.575 4.275-3.825v-.45m-12.712 0c0-4.5 3.487-7.987 8.438-7.987 4.95 0 8.437 3.487 8.437 7.987s-3.488 7.988-8.438 7.988c-4.95 0-8.437-3.488-8.437-7.988M66.6 75.263c0 1.912-1.912 3.374-4.275 3.374-2.25.225-4.163-1.35-4.388-3.6v-.675c0-2.474 1.8-4.162 4.5-4.162 2.25 0 4.05 1.575 4.05 3.263l.113 1.8zm.225-8.776v1.8a6.862 6.862 0 0 0-5.063-1.8c-4.275-.112-7.875 3.263-7.987 7.538v.337a7.974 7.974 0 0 0 7.762 7.988h.225c1.8.113 3.6-.563 4.838-1.8v1.575c0 2.025-1.8 3.6-4.162 3.6-1.8.113-3.6-.563-4.95-1.8L54.9 86.513a10.424 10.424 0 0 0 7.762 3.037c4.725 0 8.1-3.263 8.1-7.537V66.487h-3.937zM92.7 61.313h4.162v20.7H92.7zM99.675 61.2h4.275v4.05h-4.275V61.2zm0 5.737h4.163V81.9h-4.163V66.937zM109.013 70.537h-3.6v-3.6h3.6v-1.575c0-2.587 1.8-4.274 4.95-4.274h3.937v3.6h-3.375c-.788 0-1.238.337-1.238 1.124v1.013h5.625v3.6h-5.625V81.9h-4.162l-.113-11.363zM127.125 66.487a7.692 7.692 0 0 1 8.1 7.313v1.913h-12.15c.112 1.912 1.8 3.15 4.275 3.15 1.8 0 3.488-.788 4.613-2.25l2.587 2.587c-1.8 2.025-4.5 3.15-7.2 3.037-5.287 0-8.437-3.15-8.437-7.874-.113-4.275 3.262-7.876 7.537-7.988.225.112.45.112.675.112zm4.05 6.3c-.225-1.8-1.8-2.925-3.938-2.925-2.137 0-3.824 1.126-4.05 2.925h7.988z"/>
        <path fill="#F06400" fill-rule="nonzero" d="M121.5 27.45c.112 10.912-6.525 20.925-16.538 25.2a4.514 4.514 0 0 1-1.687.337c-2.475.113-4.612-1.8-4.725-4.275a4.543 4.543 0 0 1 2.925-4.5c9.225-3.825 13.5-14.4 9.675-23.512-3.825-9.225-14.4-13.5-23.512-9.675-9.113 3.825-13.5 14.4-9.675 23.513a17.74 17.74 0 0 0 9.675 9.675c1.687.675 2.812 2.362 2.812 4.162-.112 2.587-2.362 4.612-4.95 4.5-.45 0-.9-.112-1.237-.225C74.025 48.375 67.5 38.475 67.5 27.45c0-14.962 12.038-27 27-27 14.963 0 27 12.038 27 27z"/>
        <path fill="#F06400" d="M106.425 25.875c-3.375-3.6-6.975-6.863-10.912-9.788-.563-.45-1.463-.45-2.026 0-3.937 2.925-7.537 6.188-10.912 9.788-.675.675-.563 1.8.113 2.363.337.224.674.45 1.012.45l2.137.112a20.2 20.2 0 0 0 1.013 7.312c.45 1.575 1.8 2.7 3.375 3.038 2.813.45 5.625.45 8.438 0 1.575-.225 2.925-1.462 3.375-3.038a20.2 20.2 0 0 0 1.012-7.312l2.138-.113c.9-.112 1.687-.9 1.575-1.8.112-.337-.113-.675-.338-1.012z"/>
    </g>
</svg>
