<svg xmlns="http://www.w3.org/2000/svg" width="189" height="90" viewBox="0 0 189 90">
    <g fill="none" fill-rule="evenodd">
        <path fill="#FFF" fill-opacity=".01" d="M0 0h189v90H0z"/>
        <g fill="#000" fill-rule="nonzero">
            <path d="M14.065 82.237c1.125 1.688 3.038 2.588 5.063 2.475 2.362 0 4.05-1.462 4.05-3.487V80.1h-.113c-1.237 1.237-3.037 1.912-4.837 1.8-4.388.112-7.988-3.263-8.1-7.65-.113-4.388 3.262-7.988 7.65-8.1h.337c1.8-.113 3.6.562 4.95 1.8h.113v-1.463h4.05v14.625c0 4.275-3.375 7.2-8.1 7.2-3.15.113-6.075-1.125-8.1-3.6l3.037-2.475zm8.888-9.112c0-1.688-1.913-3.263-4.05-3.263-2.7 0-4.5 1.688-4.5 4.163-.113 2.137 1.462 4.05 3.712 4.275h.675c2.363 0 4.275-1.463 4.275-3.263l-.112-1.912zM37.69 66.037c4.95 0 8.438 3.488 8.438 7.988s-3.6 7.987-8.438 7.987c-4.387.338-8.212-3.037-8.437-7.425-.338-4.387 3.037-8.212 7.425-8.437.337-.113.675-.113 1.012-.113zm0 3.713a4.273 4.273 0 0 0-4.275 4.275A4.273 4.273 0 0 0 37.69 78.3a4.273 4.273 0 0 0 4.275-4.275c.113-2.25-1.687-4.163-3.825-4.275h-.45zM48.49 66.487h3.713v1.463h.112c2.588-2.475 6.75-2.475 9.225.112l.113.113c1.237-1.35 3.037-2.138 4.95-2.138 4.05 0 6.862 2.7 6.862 6.413v9h-4.05v-8.325c.113-1.8-1.237-3.263-3.037-3.375-1.8-.113-3.263 1.237-3.375 3.037V81.45h-3.938v-8.325c.113-1.8-1.237-3.375-3.037-3.375-1.8 0-3.375 1.237-3.375 3.037V81.45h-4.05V66.487h-.113zM82.353 72.562c2.7-.337 3.6-.787 3.6-1.575 0-1.012-1.013-1.575-2.7-1.575-1.688-.112-3.375 1.013-3.713 2.7l-3.937-.787c.562-3.038 3.712-5.288 7.65-5.288 4.387 0 7.087 2.25 7.087 5.85v9.563h-3.825v-1.575h-.112c-1.238 1.462-3.15 2.25-5.063 2.025-3.262 0-5.625-1.8-5.625-4.5 0-2.813 1.913-4.163 6.638-4.838zm3.937 1.575c-.45.563-1.237.9-3.262 1.238-2.475.45-3.375.9-3.375 1.8s.787 1.35 2.362 1.35c2.363 0 4.275-1.125 4.275-2.588v-1.8zM95.965 75.712c.563 1.913 2.138 2.925 4.5 2.925 2.138 0 3.375-.45 3.375-1.35 0-.9-.9-1.237-3.712-1.687-5.513-.9-7.425-2.138-7.425-4.838 0-2.812 2.812-4.612 6.862-4.612 3.825 0 7.2 1.912 7.988 4.5l-3.825 1.125c-.788-1.575-2.475-2.475-4.163-2.363-1.687 0-2.812.563-2.812 1.35 0 .788.787 1.125 4.162 1.688 5.063.787 7.088 2.137 7.088 4.95 0 2.812-3.038 4.725-7.538 4.725-2.025.112-3.937-.45-5.625-1.463-1.462-.787-2.475-2.25-2.812-3.825l3.937-1.125zM112.728 75.712c.562 1.913 2.137 2.925 4.5 2.925 2.137 0 3.375-.45 3.375-1.35 0-.9-.9-1.237-3.713-1.687-5.512-.9-7.425-2.138-7.425-4.838 0-2.812 2.813-4.612 6.863-4.612 3.825 0 7.2 1.912 7.987 4.5l-3.825 1.125c-.787-1.575-2.475-2.475-4.162-2.363-1.688 0-2.813.563-2.813 1.35 0 .788.788 1.125 4.163 1.688 5.062.787 7.087 2.137 7.087 4.95 0 2.812-3.037 4.725-7.537 4.725-2.025.112-3.938-.45-5.625-1.463-1.463-.787-2.475-2.25-2.813-3.825l3.938-1.125zM132.978 72.562c2.7-.337 3.6-.787 3.6-1.575 0-1.012-1.013-1.575-2.7-1.575-1.688-.112-3.375 1.013-3.713 2.7l-3.937-.787c.562-3.038 3.712-5.288 7.65-5.288 4.387 0 7.087 2.25 7.087 5.85v9.563h-3.825v-1.575h-.112c-1.238 1.462-3.15 2.25-5.063 2.025-3.262 0-5.625-1.8-5.625-4.5 0-2.813 1.913-4.163 6.638-4.838zm3.937 1.575c-.45.563-1.237.9-3.262 1.238-2.475.45-3.375.9-3.375 1.8s.787 1.35 2.362 1.35c2.363 0 4.275-1.125 4.275-2.588v-1.8zM146.815 82.237c1.125 1.688 3.038 2.588 5.063 2.475 2.362 0 4.05-1.462 4.05-3.487V80.1h-.113c-1.237 1.237-3.037 1.912-4.837 1.8-4.388.112-7.988-3.263-8.1-7.65-.113-4.388 3.262-7.988 7.65-8.1h.337c1.8-.113 3.6.562 4.95 1.8h.113v-1.463h4.05v14.625c0 4.275-3.375 7.2-8.1 7.2-3.15.113-6.075-1.125-8.1-3.6l3.037-2.475zm9-9.112c0-1.688-1.912-3.263-4.05-3.263-2.7 0-4.5 1.688-4.5 4.163-.112 2.137 1.463 4.05 3.713 4.275h.675c2.362 0 4.275-1.463 4.275-3.263v-1.912h-.113zM170.215 66.037a7.808 7.808 0 0 1 8.213 7.425v1.913h-12.15c.112 1.912 1.8 3.15 4.275 3.15 1.8 0 3.487-.788 4.612-2.25l2.588 2.587c-1.8 2.025-4.5 3.15-7.2 3.038-5.288 0-8.438-3.15-8.438-7.875-.112-4.275 3.263-7.875 7.65-7.988h.45zm4.05 6.3c-.225-1.8-1.8-2.925-4.05-2.925s-3.825 1.125-4.05 2.925h8.1z"/>
        </g>
        <g fill-rule="nonzero" transform="translate(67.278 1.125)">
            <circle cx="27" cy="27" r="27" fill="#F06400"/>
            <circle cx="28.688" cy="13.5" r="3.938" fill="#FFF"/>
            <path fill="#FFF" d="M32.962 28.688c1.013 0 1.688-.9 1.125-1.688-1.8-2.7-5.625-7.988-8.437-9-2.137-.9-4.725-.675-6.637.675-1.8 1.125-4.05 3.375-5.963 7.313-.563 1.237.45 2.7 2.137 2.7h8.438c.788 0 1.462-.338 1.913-1.013l1.35-2.137c.674 1.012 1.462 2.024 2.362 2.812.225.225.563.337.9.337h2.813zM39.825 40.388L36.9 35.325c-1.237-2.025-3.487-3.263-5.85-3.15l-17.55-.112c-2.925 0-3.825 5.062-3.938 6.637v.112H31.05l2.925 2.476c.675.562 1.575.9 2.475.9h2.137c.675 0 1.35-.45 1.35-1.126 0-.224 0-.45-.112-.674z"/>
            <circle cx="41.063" cy="30.375" r="3.938" fill="#FFF"/>
        </g>
    </g>
</svg>
