<svg xmlns="http://www.w3.org/2000/svg" width="189" height="90" viewBox="0 0 189 90">
    <g fill="none" fill-rule="evenodd">
        <path fill="#FFF" fill-opacity=".01" d="M0 0h189v90H0z"/>
        <g fill="#000" fill-rule="nonzero">
            <path d="M49.98 82.217a5.805 5.805 0 0 0 5.044 2.465c2.352 0 4.08-1.502 4.08-3.543v-1.076h-.055a6.408 6.408 0 0 1-4.847 1.814 7.852 7.852 0 1 1-.142-15.701 6.751 6.751 0 0 1 4.989 1.757h.056v-1.474h4.025v14.624c0 4.25-3.373 7.198-8.106 7.198a9.683 9.683 0 0 1-8.048-3.57l3.003-2.494zm8.955-9.098c0-1.7-1.927-3.26-4.081-3.26-2.721 0-4.534 1.645-4.534 4.11a3.97 3.97 0 0 0 4.364 4.224c2.353 0 4.251-1.475 4.251-3.317v-1.757zM73.677 66.034c4.903 0 8.475 3.486 8.475 7.936 0 4.45-3.572 7.935-8.475 7.935a7.953 7.953 0 1 1 0-15.87zm0 3.684a4.251 4.251 0 1 0 4.28 4.252 4.07 4.07 0 0 0-4.28-4.252zM84.424 66.46h4.023v1.33h.057a6.694 6.694 0 0 1 4.847-1.756 7.937 7.937 0 0 1 .028 15.871 7.27 7.27 0 0 1-4.705-1.587h-.056v7.538h-4.194V66.46zm8.275 3.286c-2.21 0-4.08 1.56-4.08 3.26v1.899c0 1.813 1.812 3.315 4.108 3.315a4.237 4.237 0 1 0-.028-8.474zM103.36 60.79h4.194v20.69h-4.194zM116.596 72.524c2.749-.368 3.57-.765 3.57-1.53 0-.993-1.048-1.587-2.663-1.587a3.543 3.543 0 0 0-3.741 2.692l-3.969-.822c.567-3.06 3.714-5.243 7.596-5.243 4.393 0 7.114 2.24 7.114 5.894v9.552h-3.77v-1.644h-.057a6.198 6.198 0 0 1-5.072 2.069c-3.317 0-5.612-1.814-5.612-4.478 0-2.806 1.871-4.25 6.604-4.903zm3.911 1.587h-.057c-.368.539-1.162.85-3.202 1.219-2.466.453-3.345.935-3.345 1.814 0 .907.737 1.304 2.324 1.304 2.41 0 4.28-1.106 4.28-2.551V74.11zM132.102 80.658L125.16 66.46h4.62l4.562 9.806h.057l4.507-9.806h4.647l-10.4 21.397h-4.62z"/>
        </g>
        <g fill-rule="nonzero" transform="translate(67.43 1.125)">
            <circle cx="27" cy="27" r="27" fill="#DF1995"/>
            <path fill="#FFF" d="M23.079 40.67a4.056 4.056 0 0 1-5.78-3.335 123.155 123.155 0 0 1 0-20.67 4.056 4.056 0 0 1 5.78-3.335 123.272 123.272 0 0 1 17.91 10.335 4.052 4.052 0 0 1 0 6.67A123.227 123.227 0 0 1 23.08 40.67z"/>
        </g>
    </g>
</svg>
