<svg xmlns="http://www.w3.org/2000/svg" width="189" height="90" viewBox="0 0 189 90">
    <g fill="none" fill-rule="evenodd">
        <path fill="#FFF" fill-opacity=".01" d="M0 0h189v90H0z"/>
        <g fill-rule="nonzero" transform="translate(67.498 1.125)">
            <circle cx="27" cy="27" r="27" fill="#DF1995"/>
            <path fill="#FFF" d="M43.525 19.997c-.27-.453-.573-.878-.868-1.302a5.39 5.39 0 0 1-2.579.676 5.45 5.45 0 0 1-5.45-5.449 5.39 5.39 0 0 1 .678-2.58 33.538 33.538 0 0 0-1.325-.89 7.028 7.028 0 0 0-7.653.525c-.863.635-1.673 1.312-2.492 1.98l.732.732c.396.42.396 1.077 0 1.498l-1.28 1.29a1.093 1.093 0 0 1-1.497 0l-.972-.973a71.533 71.533 0 0 0-9.84 10.846 7.053 7.053 0 0 0-.535 7.653c.272.457.578.886.876 1.315a5.39 5.39 0 0 1 2.602-.689 5.45 5.45 0 0 1 5.45 5.45 5.39 5.39 0 0 1-.686 2.594c.436.304.879.61 1.301.875a7.03 7.03 0 0 0 7.653-.525 70.624 70.624 0 0 0 10.834-9.775l-.973-.962a1.094 1.094 0 0 1 0-1.498l1.29-1.29a1.093 1.093 0 0 1 1.487 0l.743.744c.656-.831 1.345-1.64 1.968-2.493a7.053 7.053 0 0 0 .536-7.752zm-16.038.777a1.093 1.093 0 0 1-1.498 0l-1.29-1.29a1.093 1.093 0 0 1 0-1.498l1.29-1.269a1.093 1.093 0 0 1 1.498 0l1.28 1.28a1.094 1.094 0 0 1 0 1.497l-1.28 1.28zm2.766 4.264l-1.28-1.29a1.093 1.093 0 0 1 0-1.488l1.29-1.29a1.094 1.094 0 0 1 1.499 0l1.29 1.29c.389.42.389 1.068 0 1.487l-1.302 1.29a1.093 1.093 0 0 1-1.497 0zm7.051 3.017l-1.29 1.246a1.093 1.093 0 0 1-1.497 0l-1.28-1.279a1.094 1.094 0 0 1 0-1.498l1.28-1.29a1.093 1.093 0 0 1 1.497 0l1.29 1.323c.396.421.396 1.077 0 1.498z"/>
        </g>
        <g fill="#000" fill-rule="nonzero">
            <path d="M61.23 82.124a5.803 5.803 0 0 0 5.045 2.466c2.351 0 4.08-1.502 4.08-3.544V79.97H70.3a6.406 6.406 0 0 1-4.847 1.814 7.852 7.852 0 1 1-.141-15.7 6.748 6.748 0 0 1 4.988 1.756h.057v-1.473h4.024V80.99c0 4.251-3.372 7.199-8.105 7.199a9.686 9.686 0 0 1-8.05-3.57l3.005-2.495zm8.956-9.098c0-1.7-1.928-3.26-4.082-3.26-2.72 0-4.534 1.645-4.534 4.11a3.97 3.97 0 0 0 4.365 4.224c2.352 0 4.251-1.474 4.251-3.317v-1.757zM84.928 65.941c4.902 0 8.474 3.486 8.474 7.936 0 4.45-3.572 7.935-8.474 7.935a7.953 7.953 0 1 1 0-15.87zm0 3.684a4.251 4.251 0 1 0 4.28 4.252 4.07 4.07 0 0 0-4.28-4.252zM101.568 69.937v6.35c0 .934.312 1.218 1.531 1.218h2.75v3.882h-3.176c-3.768 0-5.3-1.473-5.3-4.846v-6.604h-3.542v-3.57h3.542v-3.77h4.195v3.77h4.847v3.57h-4.847zM108.288 59.706h4.336V63.9h-4.336v-4.194zm.085 6.66h4.194v15.021h-4.194v-15.02zM120.392 73.791l-6.377-7.424h5.272l3.798 4.846h.056l3.855-4.846h5.27l-6.377 7.424 6.548 7.596h-5.271l-4.025-5.045h-.056l-3.969 5.045h-5.271z"/>
        </g>
    </g>
</svg>
