<svg xmlns="http://www.w3.org/2000/svg" width="189" height="90" viewBox="0 0 189 90">
    <g fill="none" fill-rule="evenodd">
        <path fill="#FFF" fill-opacity=".01" d="M0 0h189v90H0z"/>
        <g fill-rule="nonzero" transform="translate(67.5 1.575)">
            <circle cx="27" cy="27" r="25.313" fill="#FFF"/>
            <path fill="#93328E" d="M27 0c14.85 0 27 12.037 27 27 0 14.962-12.038 27-27 27C12.037 54 0 41.962 0 27 0 12.037 12.037 0 27 0zm0 3.375c-12.92 0-23.413 10.365-23.622 23.234L3.375 27l.003.39C3.587 40.26 14.081 50.626 27 50.626c13.05 0 23.625-10.575 23.625-23.625S40.05 3.375 27 3.375zm8.438 25.2c.9 1.238 2.362 1.913 3.825 2.137-.113 2.588-.225 5.288-.338 6.413-.337 2.475-2.25 4.388-4.612 4.95a35.588 35.588 0 0 1-14.626 0c-2.475-.45-4.387-2.475-4.725-4.95-.224-1.125-.224-3.938-.337-6.525 1.575-.113 3.038-.788 3.938-2.025l.225.225.224.225c.27.27.54.468.81.652l.203.136V34.2c-.106.635.386 1.17 1.007 1.232l.118.005h11.7c.633 0 1.068-.494 1.12-1.112l.005-.125v-4.388c.45-.225.788-.562 1.125-.9l.337-.337zm-8.326 7.762c-1.35 0-2.587 1.125-2.587 2.475S25.65 41.4 27 41.4s2.475-1.012 2.587-2.587a2.497 2.497 0 0 0-2.474-2.476zM27 11.25c1.012 0 2.137.113 3.262.113 1.8.112 3.6.225 5.4.562 2.026.225 3.825 1.575 4.726 3.375 1.462 2.813 2.474 5.625 3.262 8.662 0 .113.113.338.113.45.112.338.112.563.112.9 0 .675-.112 1.238-.112 1.575-.788 1.463-2.25 2.363-3.825 2.363h-.45c-1.463-.113-2.813-.9-3.488-2.25-.112-.113-.225-.225-.45-.225s-.337.113-.45.225c-.113.45-.337.675-.675 1.012 0 .113-.112.113-.225.226a4.154 4.154 0 0 1-5.625 0c-.337-.338-.675-.675-.9-1.125-.113-.113-.225-.226-.45-.226s-.338.113-.45.226c-.225.45-.563.787-.9 1.125-.788.675-1.913 1.125-2.925 1.125-1.012 0-1.912-.338-2.7-1.013l-.225-.225c-.337-.225-.563-.563-.787-1.012-.113-.113-.226-.226-.45-.226-.226 0-.338.113-.45.226-.675 1.35-2.026 2.137-3.488 2.25h-.45c-1.8 0-3.375-1.013-4.05-2.7-.112-.45-.225-1.013-.112-1.463v-.19c.004-.242.022-.44.112-.71 0-.113.113-.338.113-.45.675-2.925 1.8-5.85 3.15-8.55.787-1.8 2.474-3.038 4.5-3.375 1.8-.225 3.6-.45 5.512-.563 1.125-.112 2.25-.112 3.375-.112z"/>
        </g>
        <path fill="#000" fill-rule="nonzero" d="M67.058 68.097l.217.19v-1.462h4.05V81.45c0 4.275-3.375 7.2-8.1 7.2-3.15.112-6.075-1.125-8.1-3.6l3.038-2.475c1.125 1.688 3.037 2.587 5.062 2.475 2.363 0 4.05-1.462 4.05-3.487v-1.126c-1.238 1.238-3.038 1.913-4.838 1.8-4.387.113-7.987-3.262-8.1-7.65-.112-4.387 3.263-7.987 7.65-8.1h.338c1.705-.106 3.41.494 4.733 1.61zm14.73-1.722c4.95 0 8.437 3.487 8.437 7.987s-3.6 7.988-8.438 7.988c-4.387.338-8.212-3.037-8.437-7.425-.337-4.388 3.038-8.212 7.425-8.438.337-.112.675-.112 1.012-.112zm14.85-5.288v6.863h.112a6.974 6.974 0 0 1 4.838-1.575c4.275-.112 7.875 3.263 7.987 7.65v.337c.112 4.276-3.263 7.876-7.538 7.988h-.562c-1.8 0-3.6-.675-5.063-2.025v1.462h-3.937v-20.7h4.163zm19.462 5.738V81.9h-4.162V66.825h4.162zm18.563-.112v3.262l-10.126 8.213h10.35v3.487H118.35v-3.15h-.112l10.125-8.213V70.2h-9.788v-3.487h16.087zM63 70.2c-2.7 0-4.5 1.688-4.5 4.162-.112 2.138 1.462 4.05 3.712 4.276h.675c2.363 0 4.275-1.463 4.275-3.263v-1.912h-.112c0-1.688-1.912-3.263-4.05-3.263zm19.237-.112h-.45a4.273 4.273 0 0 0-4.275 4.275 4.273 4.273 0 0 0 4.275 4.275 4.273 4.273 0 0 0 4.275-4.276c.113-2.25-1.687-4.162-3.825-4.274zm19.238-.113c-.225.113-.337.113-.45.113-2.25 0-4.275 1.462-4.275 3.262v1.913c0 1.8 1.912 3.262 4.275 3.262 2.7 0 4.5-1.688 4.5-4.275 0-2.25-1.8-4.162-4.05-4.275zm14.738-9.787v4.162h-4.388v-4.162h4.388z"/>
    </g>
</svg>
